<?xml version="1.0" standalone="no"?>
<!DOCTYPE svg PUBLIC "-//W3C//DTD SVG 20010904//EN"
 "http://www.w3.org/TR/2001/REC-SVG-20010904/DTD/svg10.dtd">
<svg version="1.0" xmlns="http://www.w3.org/2000/svg"
 width="2346.000000pt" height="1052.000000pt" viewBox="0 0 2346.000000 1052.000000"
 preserveAspectRatio="xMidYMid meet">

<g transform="translate(0.000000,1052.000000) scale(0.100000,-0.100000)"
fill="#000000" stroke="none">
<path d="M20140 10215 c0 -18 5 -25 19 -25 30 0 38 -20 45 -109 7 -90 16 -117
50 -143 19 -16 20 -17 3 -24 -29 -11 -45 -54 -52 -144 -8 -90 -16 -110 -46
-110 -14 0 -19 -7 -19 -25 0 -22 4 -25 34 -25 26 0 41 7 60 31 23 27 26 39 26
109 0 93 11 126 45 142 16 7 25 19 25 33 0 14 -9 26 -25 33 -34 16 -45 49 -45
138 0 105 -23 143 -87 144 -29 0 -33 -3 -33 -25z"/>
<path d="M9237 10153 c-4 -3 -7 -62 -7 -130 l0 -123 30 0 c29 0 30 1 30 50 0
43 3 50 20 50 13 0 33 -19 56 -50 31 -44 40 -50 71 -50 l34 0 -22 33 c-12 17
-31 42 -42 54 -19 21 -19 21 3 33 52 28 45 109 -12 129 -34 12 -151 15 -161 4z
m143 -58 c19 -23 -5 -45 -51 -45 -37 0 -39 2 -39 30 0 28 2 30 39 30 22 0 44
-6 51 -15z"/>
<path d="M9690 10030 l0 -130 25 0 25 0 0 130 0 130 -25 0 -25 0 0 -130z"/>
<path d="M10737 10136 c-9 -13 -26 -27 -37 -31 -13 -4 -20 -15 -20 -31 0 -24
23 -34 35 -14 17 27 25 2 25 -75 l0 -85 30 0 31 0 -3 128 c-3 120 -4 127 -24
130 -14 2 -27 -6 -37 -22z"/>
<path d="M12008 10119 c-11 -6 -18 -22 -18 -39 0 -24 7 -33 41 -50 47 -25 46
-44 -2 -46 -51 -2 -52 -3 -39 -19 18 -21 73 -19 94 4 27 30 17 63 -26 84 -51
25 -52 52 -2 44 29 -5 35 -3 32 11 -4 20 -54 27 -80 11z"/>
<path d="M12110 10115 c0 -9 9 -15 25 -15 24 0 25 -2 25 -75 0 -68 2 -75 20
-75 18 0 20 7 20 75 0 73 1 75 25 75 16 0 25 6 25 15 0 12 -14 15 -70 15 -56
0 -70 -3 -70 -15z"/>
<path d="M12283 10106 c-23 -20 -28 -32 -27 -67 2 -53 37 -89 89 -89 55 0 65
8 65 51 0 37 -2 39 -30 39 -31 0 -41 -16 -15 -26 29 -12 16 -34 -20 -34 -38 0
-55 20 -55 64 0 39 27 59 72 53 43 -6 59 7 29 22 -33 18 -78 13 -108 -13z"/>
<path d="M17040 10040 c0 -73 3 -90 15 -90 10 0 15 10 15 29 0 25 5 30 35 35
33 7 65 37 65 63 0 29 -39 53 -85 53 l-45 0 0 -90z m85 30 c0 -20 -6 -26 -27
-28 -25 -3 -28 0 -28 28 0 28 3 31 28 28 21 -2 27 -8 27 -28z"/>
<path d="M17200 10040 c0 -73 3 -90 15 -90 10 0 15 11 15 35 0 45 18 45 48 0
12 -19 29 -35 37 -35 20 0 19 6 -6 41 -19 28 -20 31 -5 48 39 42 5 91 -62 91
l-42 0 0 -90z m87 44 c7 -18 -3 -29 -34 -39 -20 -6 -23 -3 -23 24 0 26 4 31
25 31 14 0 28 -7 32 -16z"/>
<path d="M17369 10101 c-20 -20 -29 -39 -29 -61 0 -45 47 -90 95 -90 51 0 85
36 85 90 0 84 -91 121 -151 61z m111 -33 c13 -25 13 -31 0 -55 -17 -31 -62
-42 -86 -22 -17 14 -19 80 -2 97 22 22 71 10 88 -20z"/>
<path d="M17550 10040 l0 -90 51 0 c43 0 55 5 80 29 20 20 29 39 29 61 0 22
-9 41 -29 61 -25 24 -37 29 -80 29 l-51 0 0 -90z m118 28 c21 -44 -2 -82 -51
-86 l-37 -3 0 61 0 61 37 -3 c30 -2 41 -9 51 -30z"/>
<path d="M7444 10097 c-21 -19 -27 -32 -27 -67 0 -54 35 -90 87 -90 20 0 40
-8 51 -20 18 -20 45 -27 45 -12 0 5 -9 17 -20 27 -17 16 -18 21 -6 34 22 26
26 62 11 97 -24 58 -92 73 -141 31z m100 -23 c36 -35 10 -104 -39 -104 -32 0
-55 25 -55 60 0 35 23 60 55 60 13 0 31 -7 39 -16z"/>
<path d="M7666 10112 c-2 -4 -16 -37 -29 -72 -14 -36 -28 -73 -32 -82 -10 -26
21 -23 35 2 8 15 21 20 49 20 30 0 40 -4 44 -20 3 -11 13 -20 22 -20 10 0 15
6 12 13 -2 6 -17 47 -33 90 -20 55 -33 77 -46 77 -9 0 -19 -4 -22 -8z m38 -79
c6 -20 4 -23 -19 -23 -22 0 -26 3 -20 18 4 9 10 25 13 36 5 20 14 11 26 -31z"/>
<path d="M20980 9931 l0 -181 93 0 c74 0 98 4 124 20 55 33 61 119 11 154
l-21 15 22 27 c29 36 26 68 -7 105 -27 30 -32 32 -125 37 l-97 5 0 -182z m188
117 c19 -19 15 -66 -7 -78 -11 -5 -47 -10 -80 -10 l-61 0 0 50 0 50 68 0 c40
0 73 -5 80 -12z m6 -151 c26 -19 24 -67 -4 -89 -18 -15 -37 -18 -84 -16 l-61
3 -3 58 -3 57 69 0 c41 0 75 -5 86 -13z"/>
<path d="M21830 10085 c0 -18 5 -25 20 -25 15 0 20 7 20 25 0 18 -5 25 -20 25
-15 0 -20 -7 -20 -25z"/>
<path d="M9506 10064 c-35 -36 -36 -101 -3 -140 32 -37 100 -40 128 -5 10 13
16 27 13 32 -7 12 -54 11 -54 -1 0 -16 -47 -12 -54 5 -4 12 5 15 54 15 58 0
60 1 60 26 0 83 -87 124 -144 68z m82 -26 c20 -20 14 -28 -23 -28 -33 0 -35 2
-25 20 12 23 30 26 48 8z"/>
<path d="M9813 10075 c-29 -21 -44 -75 -32 -119 13 -47 65 -72 114 -56 34 11
61 41 48 54 -10 10 -53 7 -53 -4 0 -16 -47 -12 -54 5 -4 12 5 15 50 15 60 0
71 10 60 55 -14 57 -85 84 -133 50z m77 -45 c10 -18 8 -20 -25 -20 -37 0 -43
8 -23 28 18 18 36 15 48 -8z"/>
<path d="M10000 10070 c-27 -27 -25 -40 4 -40 14 0 28 5 31 10 9 14 43 12 48
-2 2 -8 -14 -19 -42 -28 -31 -10 -50 -24 -61 -43 -14 -27 -14 -29 14 -53 22
-20 35 -24 55 -18 14 4 42 7 61 6 l35 -2 -3 77 c-3 52 -9 84 -20 96 -22 25
-96 23 -122 -3z m90 -99 c0 -17 -30 -40 -45 -35 -18 7 -20 30 -2 37 21 9 47 7
47 -2z"/>
<path d="M10190 10070 c-11 -11 -20 -26 -20 -33 0 -27 31 -55 75 -66 25 -6 45
-15 45 -20 0 -16 -39 -19 -57 -5 -23 17 -63 18 -63 1 0 -27 39 -50 84 -51 56
-1 88 25 84 68 -3 27 -9 33 -55 50 -29 10 -53 22 -53 27 0 12 37 11 45 -1 8
-13 52 -13 60 -1 3 5 -7 19 -21 30 -35 28 -97 28 -124 1z"/>
<path d="M10396 10064 c-35 -36 -36 -101 -3 -140 32 -37 100 -40 128 -5 10 13
16 27 13 32 -7 12 -54 11 -54 -1 0 -16 -47 -12 -54 5 -4 12 5 15 54 15 58 0
60 1 60 26 0 83 -87 124 -144 68z m82 -26 c20 -20 14 -28 -23 -28 -33 0 -35 2
-25 20 12 23 30 26 48 8z"/>
<path d="M21307 10003 c-13 -12 -7 -173 7 -207 22 -53 93 -67 139 -28 15 14
17 13 17 -1 0 -10 8 -17 20 -17 19 0 20 7 20 130 0 123 -1 130 -20 130 -19 0
-20 -7 -20 -90 0 -83 -2 -93 -25 -115 -29 -30 -56 -32 -78 -7 -13 15 -17 39
-17 115 0 87 -2 97 -18 97 -10 0 -22 -3 -25 -7z"/>
<path d="M21602 9993 c-31 -26 -37 -65 -15 -91 10 -12 45 -30 78 -40 65 -19
83 -44 49 -69 -28 -20 -62 -16 -90 12 -44 44 -75 23 -36 -24 36 -46 144 -45
177 2 36 52 6 96 -82 122 -59 17 -77 40 -48 61 26 19 52 17 75 -6 21 -21 60
-27 60 -10 0 6 -11 22 -25 35 -30 31 -111 35 -143 8z"/>
<path d="M21830 9880 c0 -123 1 -130 20 -130 19 0 20 7 20 130 0 123 -1 130
-20 130 -19 0 -20 -7 -20 -130z"/>
<path d="M21940 9880 l0 -130 25 0 c25 0 25 0 25 93 0 104 13 130 66 130 43 0
54 -26 54 -130 0 -88 1 -93 21 -93 20 0 21 4 17 116 -3 101 -6 117 -22 130
-26 19 -96 18 -124 -2 -20 -14 -22 -14 -22 0 0 9 -9 16 -20 16 -19 0 -20 -7
-20 -130z"/>
<path d="M22259 9995 c-58 -31 -74 -151 -28 -209 51 -65 176 -49 202 27 10 26
-27 22 -57 -8 -39 -39 -87 -32 -111 16 -8 15 -15 33 -15 39 0 6 35 10 95 10
l95 0 0 25 c0 34 -24 80 -52 99 -28 20 -94 20 -129 1z m105 -36 c14 -11 26
-29 26 -40 0 -17 -7 -19 -63 -19 -35 0 -66 3 -70 6 -10 10 14 51 37 62 31 15
40 14 70 -9z"/>
<path d="M22510 9990 c-12 -12 -20 -33 -20 -55 0 -38 17 -52 98 -76 57 -17 70
-33 47 -59 -25 -28 -71 -26 -99 5 -42 45 -77 23 -38 -24 36 -46 144 -45 177 2
19 27 19 71 0 87 -8 7 -43 22 -77 34 -49 16 -63 25 -63 41 0 12 10 23 27 29
23 8 33 6 58 -12 55 -41 87 -15 34 27 -36 29 -116 29 -144 1z"/>
<path d="M22760 9990 c-12 -12 -20 -33 -20 -55 0 -38 17 -52 98 -76 57 -17 70
-33 47 -59 -25 -28 -71 -26 -99 5 -42 45 -77 23 -38 -24 36 -46 144 -45 177 2
19 27 19 71 0 87 -8 7 -43 22 -77 34 -49 16 -63 25 -63 41 0 12 10 23 27 29
23 8 33 6 58 -12 55 -41 87 -15 34 27 -36 29 -116 29 -144 1z"/>
<path d="M7470 9803 c0 -10 -16 -65 -35 -122 -19 -57 -35 -105 -35 -107 0 -1
17 -4 38 -6 l37 -3 0 -230 0 -230 -930 -3 c-511 -2 -954 0 -982 3 l-53 6 0 70
0 69 -2695 0 -2695 0 0 -160 0 -160 2695 0 2695 0 0 75 0 75 985 0 985 0 -2
-282 -3 -283 -712 -3 -713 -2 0 75 0 75 -2695 0 -2695 0 0 -160 0 -160 2695 0
2694 0 3 73 3 72 710 0 710 0 3 -237 2 -238 -985 0 -985 0 0 75 0 75 -2695 0
-2695 0 0 -160 0 -160 2695 0 2694 0 3 73 3 72 980 0 980 0 0 -1277 0 -1278
-977 0 -978 0 0 -160 0 -160 974 0 974 0 7 -102 c4 -57 5 -119 3 -138 l-3 -35
-757 -3 -758 -2 0 -160 0 -160 754 0 753 0 7 -81 c4 -44 4 -84 1 -90 -4 -5
-377 -9 -981 -9 l-974 0 0 -160 0 -160 974 0 974 0 7 -103 c3 -56 5 -282 3
-503 -3 -359 -5 -404 -21 -427 -22 -34 -22 -68 1 -98 17 -22 18 -62 21 -546
l2 -523 -870 -2 -871 -3 0 73 0 72 -2695 0 -2695 0 0 -160 0 -160 2695 0 2695
0 0 75 0 75 870 0 870 0 0 -245 0 -245 -870 0 -870 0 0 75 0 75 -2695 0 -2695
0 0 -160 0 -160 2695 0 2695 0 0 70 0 70 878 2 877 3 3 257 2 258 4204 0
c3824 0 4204 1 4210 16 3 9 6 693 6 1520 l0 1504 34 0 c62 0 94 67 61 129 -15
31 -33 41 -71 41 l-24 0 0 380 0 380 35 0 c19 0 35 4 35 9 0 24 -83 241 -90
234 -9 -10 -80 -215 -80 -231 0 -7 14 -12 35 -12 l36 0 -5 -412 c-2 -227 -4
-422 -4 -433 0 -11 2 -712 4 -1557 l4 -1538 -4195 0 -4195 0 0 520 0 520 24 0
c13 0 29 -7 36 -15 7 -8 19 -15 28 -15 13 0 13 2 -2 18 -15 17 -15 21 -1 50
27 53 -4 112 -59 116 l-26 1 2 500 3 500 1703 3 1702 2 0 75 0 75 325 0 325 0
0 740 0 740 41 0 c28 0 39 4 36 13 -3 6 -22 65 -43 129 -37 110 -64 151 -64
94 0 -13 -16 -69 -35 -125 -19 -55 -35 -103 -35 -106 0 -3 18 -5 40 -5 l40 0
0 -180 0 -180 -505 0 -505 0 0 75 0 75 -1515 0 -1515 0 0 2070 0 2070 39 0 40
0 -42 125 c-24 69 -48 124 -54 125 -7 0 -13 -8 -13 -17z m-3932 -706 c3 -62 2
-67 -17 -67 -18 0 -21 6 -21 42 0 41 0 42 -16 20 -8 -12 -24 -22 -35 -22 -12
0 -19 -7 -19 -20 0 -13 -7 -20 -20 -20 -18 0 -20 7 -20 65 l0 65 45 0 c38 0
47 -4 55 -22 8 -22 9 -22 9 -2 1 11 4 24 8 28 17 17 28 -6 31 -67z m242 3 c0
-56 -3 -70 -15 -70 -12 0 -15 14 -15 70 0 56 3 70 15 70 12 0 15 -14 15 -70z
m48 -3 c2 -53 0 -67 -12 -67 -10 0 -15 16 -18 63 -4 68 -2 80 15 74 7 -2 13
-31 15 -70z m-2936 46 c22 -20 23 -70 1 -95 -11 -12 -30 -18 -60 -18 l-43 0 0
65 0 65 42 0 c24 0 49 -7 60 -17z m171 -25 l15 -43 11 30 c6 17 14 36 16 43 5
14 35 17 35 3 0 -5 -10 -35 -22 -66 -28 -73 -52 -73 -80 1 -18 47 -21 50 -49
46 -33 -5 -40 -22 -9 -22 11 0 20 -7 20 -15 0 -8 -9 -15 -20 -15 -11 0 -20 -7
-20 -15 0 -9 9 -15 25 -15 14 0 25 -4 25 -10 0 -5 -20 -10 -45 -10 l-45 0 0
65 0 65 64 0 64 0 15 -42z m333 7 c1 -16 5 -38 9 -48 12 -28 -13 -47 -61 -47
l-44 0 0 66 0 65 48 -3 c45 -3 47 -5 48 -33z m54 -8 c0 -24 5 -48 12 -55 20
-20 38 6 38 54 0 33 4 44 15 44 13 0 15 -11 13 -57 -3 -52 -6 -59 -31 -71 -24
-12 -31 -11 -53 2 -21 14 -24 24 -24 71 0 42 3 55 15 55 11 0 15 -11 15 -43z
m130 -22 c0 -51 -3 -65 -15 -65 -12 0 -15 14 -15 65 0 51 3 65 15 65 12 0 15
-14 15 -65z m60 10 c0 -52 1 -55 25 -55 14 0 25 -4 25 -10 0 -5 -20 -10 -45
-10 l-45 0 0 65 c0 58 2 65 20 65 18 0 20 -7 20 -55z m164 33 c9 -12 16 -32
16 -43 0 -41 -28 -65 -76 -65 l-44 0 0 65 0 65 44 0 c35 0 48 -5 60 -22z m356
7 c0 -9 -9 -15 -25 -15 -14 0 -25 -4 -25 -10 0 -5 9 -10 20 -10 11 0 20 -7 20
-15 0 -8 -9 -15 -20 -15 -11 0 -20 -7 -20 -16 0 -13 10 -14 56 -10 68 5 74 10
37 28 -21 10 -28 20 -28 43 l0 30 98 3 c81 2 97 0 97 -13 0 -8 -9 -15 -20 -15
-17 0 -20 -7 -20 -50 0 -38 -4 -50 -15 -50 -11 0 -15 12 -15 50 0 54 4 50 -65
53 -32 1 -33 -12 -3 -27 42 -21 32 -78 -13 -77 -13 0 -52 0 -86 0 l-63 0 0 51
c0 43 -3 50 -20 50 -17 0 -20 -7 -20 -50 0 -43 -3 -50 -20 -50 -17 0 -20 7
-20 49 0 40 -3 50 -20 54 -11 3 -20 10 -20 16 0 7 36 11 105 11 87 0 105 -3
105 -15z m460 1 c21 -26 8 -60 -27 -71 -22 -6 -33 -15 -33 -27 0 -10 -7 -18
-15 -18 -12 0 -15 14 -15 65 l0 65 39 0 c21 0 44 -6 51 -14z m50 -29 c0 -24 5
-48 12 -55 20 -20 38 6 38 54 0 33 4 44 15 44 13 0 15 -11 13 -57 -3 -52 -6
-59 -31 -71 -24 -12 -31 -11 -53 2 -21 14 -24 24 -24 71 0 42 3 55 15 55 11 0
15 -11 15 -43z m187 31 c6 -7 10 -35 9 -63 l-1 -50 -47 -3 -48 -3 0 65 0 66
39 0 c21 0 43 -6 48 -12z m63 -43 c0 -52 1 -55 25 -55 14 0 25 -4 25 -10 0 -5
-20 -10 -45 -10 l-45 0 0 65 c0 58 2 65 20 65 18 0 20 -7 20 -55z m90 -10 c0
-51 -3 -65 -15 -65 -12 0 -15 14 -15 65 0 51 3 65 15 65 12 0 15 -14 15 -65z
m100 51 c0 -9 -12 -16 -27 -18 l-28 -3 30 -15 c40 -20 44 -53 10 -76 -21 -13
-31 -15 -50 -6 -33 15 -32 34 2 30 34 -4 42 18 8 26 -19 5 -25 13 -25 35 0 36
6 41 47 41 22 0 33 -5 33 -14z m50 -11 c0 -20 5 -25 25 -25 20 0 25 5 25 25 0
16 6 25 15 25 12 0 15 -14 15 -65 0 -51 -3 -65 -15 -65 -9 0 -15 9 -15 25 0
20 -5 25 -25 25 -20 0 -25 -5 -25 -25 0 -16 -6 -25 -15 -25 -12 0 -15 14 -15
65 0 51 3 65 15 65 9 0 15 -9 15 -25z m980 -30 c0 -30 5 -55 10 -55 6 0 10 -4
10 -10 0 -5 -18 -10 -40 -10 -22 0 -40 5 -40 10 0 6 7 10 15 10 10 0 15 10 15
30 0 20 -5 30 -15 30 -21 0 -19 27 3 39 35 21 42 13 42 -44z m200 0 c0 -52 1
-55 25 -55 14 0 25 -4 25 -10 0 -5 -18 -10 -40 -10 l-40 0 0 65 c0 51 3 65 15
65 12 0 15 -13 15 -55z m-3095 9 c16 -25 16 -29 1 -60 -20 -42 -36 -43 -59 -3
-16 29 -16 32 0 60 21 36 36 37 58 3z m667 -4 c16 -28 16 -32 0 -60 -9 -16
-22 -30 -28 -30 -13 0 -44 43 -44 60 0 17 31 60 44 60 6 0 19 -14 28 -30z
m560 0 c16 -28 16 -32 0 -60 -9 -16 -22 -30 -28 -30 -13 0 -44 43 -44 60 0 17
31 60 44 60 6 0 19 -14 28 -30z m1151 13 c9 -2 17 -14 18 -26 0 -15 2 -17 6
-7 7 19 33 40 49 40 17 0 44 -28 44 -46 0 -9 -11 -14 -31 -14 -18 0 -28 -4
-24 -10 4 -6 15 -8 25 -5 26 8 35 -12 11 -24 -26 -14 -71 2 -72 26 0 15 -2 14
-9 -3 -9 -23 -36 -38 -51 -28 -5 3 -9 -2 -9 -10 0 -9 -7 -16 -15 -16 -12 0
-15 14 -15 65 0 64 0 65 28 64 15 -1 35 -4 45 -6z m295 -6 c18 -14 16 -87 -3
-87 -11 0 -15 11 -15 36 0 45 -24 42 -28 -4 -2 -20 -9 -32 -18 -32 -10 0 -14
13 -14 49 0 49 0 50 33 49 17 0 38 -5 45 -11z m93 3 c10 -6 19 -20 19 -30 0
-16 -7 -20 -31 -20 -18 0 -28 -4 -24 -10 4 -6 15 -8 25 -5 18 6 38 -11 26 -22
-12 -12 -68 -6 -77 8 -14 22 -11 56 7 73 18 19 28 20 55 6z m457 -2 c22 -22
14 -48 -13 -48 -14 0 -25 -5 -25 -11 0 -7 10 -9 25 -5 31 8 35 -19 5 -29 -29
-9 -70 20 -70 50 0 44 50 71 78 43z m97 3 c11 -5 28 -4 38 1 10 5 27 6 37 3
16 -5 20 -15 20 -51 0 -47 3 -44 -63 -48 -10 -1 -21 -6 -25 -12 -11 -18 -50
-26 -70 -15 -16 9 -18 18 -14 63 6 67 24 80 77 59z m229 -19 l13 -25 7 27 c3
14 13 26 21 26 20 0 19 -10 -7 -75 -16 -38 -29 -55 -41 -55 -14 0 -16 4 -9 18
14 27 -11 75 -41 79 -29 4 -40 -7 -31 -31 4 -11 13 -14 24 -11 27 8 34 -12 10
-25 -47 -25 -93 45 -55 84 9 8 32 15 55 14 33 0 43 -5 54 -26z m-1444 -17 c0
-10 -10 -15 -30 -15 -20 0 -30 5 -30 15 0 10 10 15 30 15 20 0 30 -5 30 -15z
m910 0 c0 -9 -9 -15 -25 -15 -16 0 -25 6 -25 15 0 9 9 15 25 15 16 0 25 -6 25
-15z m-412 -578 c3 -62 2 -67 -17 -67 -18 0 -21 6 -21 42 0 41 0 42 -16 20 -8
-12 -24 -22 -35 -22 -12 0 -19 -7 -19 -20 0 -13 -7 -20 -20 -20 -18 0 -20 7
-20 65 l0 65 45 0 c38 0 47 -4 55 -22 8 -22 9 -22 9 -2 1 11 4 24 8 28 17 17
28 -6 31 -67z m242 3 c0 -56 -3 -70 -15 -70 -12 0 -15 14 -15 70 0 56 3 70 15
70 12 0 15 -14 15 -70z m48 -3 c2 -53 0 -67 -12 -67 -10 0 -15 16 -18 63 -4
68 -2 80 15 74 7 -2 13 -31 15 -70z m644 63 c2 -5 1 -37 0 -70 -3 -43 -8 -60
-18 -60 -11 0 -14 15 -14 63 0 35 3 67 7 70 9 10 21 9 25 -3z m646 -63 c2 -53
0 -67 -12 -67 -10 0 -15 16 -18 63 -4 68 -2 80 15 74 7 -2 13 -31 15 -70z
m-4226 46 c22 -20 23 -70 1 -95 -11 -12 -30 -18 -60 -18 l-43 0 0 65 0 65 42
0 c24 0 49 -7 60 -17z m171 -25 l15 -43 11 30 c6 17 14 36 16 43 5 14 35 17
35 3 0 -5 -10 -35 -22 -66 -28 -73 -52 -73 -80 0 -18 49 -20 51 -54 47 -39 -5
-47 -22 -9 -22 16 0 25 -6 25 -15 0 -9 -9 -15 -25 -15 -16 0 -25 -6 -25 -15 0
-10 10 -15 30 -15 17 0 30 -4 30 -10 0 -5 -20 -10 -45 -10 l-45 0 0 65 0 65
64 0 64 0 15 -42z m333 -1 c1 -20 4 -40 7 -44 4 -3 2 -14 -4 -24 -7 -14 -21
-19 -54 -19 l-45 0 0 66 0 65 48 -3 47 -3 1 -38z m54 0 c0 -24 5 -48 12 -55
20 -20 38 6 38 54 0 33 4 44 15 44 13 0 15 -11 13 -57 -3 -52 -6 -59 -31 -71
-24 -12 -31 -11 -53 2 -21 14 -24 24 -24 71 0 42 3 55 15 55 11 0 15 -11 15
-43z m130 -22 c0 -51 -3 -65 -15 -65 -12 0 -15 14 -15 65 0 51 3 65 15 65 12
0 15 -14 15 -65z m60 10 c0 -52 1 -55 25 -55 14 0 25 -4 25 -10 0 -5 -20 -10
-45 -10 l-45 0 0 65 c0 58 2 65 20 65 18 0 20 -7 20 -55z m164 33 c9 -12 16
-32 16 -43 0 -41 -28 -65 -76 -65 l-44 0 0 65 0 65 44 0 c35 0 48 -5 60 -22z
m356 7 c0 -10 -10 -15 -30 -15 -16 0 -30 -4 -30 -10 0 -5 11 -10 25 -10 16 0
25 -6 25 -15 0 -9 -9 -15 -25 -15 -16 0 -25 -6 -25 -16 0 -13 10 -15 61 -11
33 3 63 7 66 10 2 3 -8 11 -24 19 -21 10 -28 20 -28 43 l0 30 98 3 c81 2 97 0
97 -13 0 -8 -9 -15 -20 -15 -17 0 -20 -7 -20 -50 0 -38 -4 -50 -15 -50 -11 0
-15 12 -15 50 0 54 4 50 -65 53 -32 1 -33 -12 -3 -27 42 -21 32 -78 -13 -77
-13 0 -52 0 -86 0 l-63 0 0 51 c0 43 -3 50 -20 50 -17 0 -20 -7 -20 -50 0 -43
-3 -50 -20 -50 -17 0 -20 7 -20 49 0 40 -3 50 -20 54 -11 3 -20 10 -20 16 0 7
36 11 105 11 87 0 105 -3 105 -15z m460 1 c21 -26 8 -60 -27 -71 -22 -6 -33
-15 -33 -27 0 -10 -7 -18 -15 -18 -12 0 -15 14 -15 65 l0 65 39 0 c21 0 44 -6
51 -14z m50 -29 c0 -24 5 -48 12 -55 20 -20 38 6 38 54 0 33 4 44 15 44 13 0
15 -11 13 -57 -3 -52 -6 -59 -31 -71 -24 -12 -31 -11 -53 2 -21 14 -24 24 -24
71 0 42 3 55 15 55 11 0 15 -11 15 -43z m187 31 c6 -7 10 -35 9 -63 l-1 -50
-47 -3 -48 -3 0 65 0 66 39 0 c21 0 43 -6 48 -12z m63 -43 c0 -52 1 -55 25
-55 14 0 25 -4 25 -10 0 -5 -20 -10 -45 -10 l-45 0 0 65 c0 58 2 65 20 65 18
0 20 -7 20 -55z m90 -10 c0 -51 -3 -65 -15 -65 -12 0 -15 14 -15 65 0 51 3 65
15 65 12 0 15 -14 15 -65z m100 51 c0 -9 -12 -16 -27 -18 l-28 -3 30 -15 c40
-20 44 -53 10 -76 -21 -13 -31 -15 -50 -6 -33 15 -32 34 2 30 34 -4 42 18 8
26 -19 5 -25 13 -25 35 0 36 6 41 47 41 22 0 33 -5 33 -14z m50 -11 c0 -20 5
-25 25 -25 20 0 25 5 25 25 0 16 6 25 15 25 12 0 15 -14 15 -65 0 -51 -3 -65
-15 -65 -9 0 -15 9 -15 25 0 20 -5 25 -25 25 -20 0 -25 -5 -25 -25 0 -16 -6
-25 -15 -25 -12 0 -15 14 -15 65 0 51 3 65 15 65 9 0 15 -9 15 -25z m998 -8
c2 -17 -3 -36 -13 -47 -15 -16 -14 -18 5 -23 39 -10 21 -27 -30 -27 -27 0 -50
3 -50 6 0 4 14 22 30 41 17 18 30 38 30 44 0 7 -12 8 -30 4 -16 -4 -30 -3 -30
2 0 19 26 34 55 31 25 -2 31 -8 33 -31z m172 -4 l22 -38 19 38 c31 59 49 49
49 -28 0 -51 -3 -65 -15 -65 -10 0 -15 10 -16 28 l0 27 -16 -22 c-20 -30 -29
-29 -47 5 l-15 27 -1 -32 c0 -23 -5 -33 -15 -33 -12 0 -15 14 -15 65 0 77 16
86 50 28z m-3085 -9 c16 -25 16 -29 1 -60 -20 -42 -36 -43 -59 -3 -16 29 -16
32 0 60 21 36 36 37 58 3z m667 -4 c16 -28 16 -32 0 -60 -9 -16 -22 -30 -28
-30 -13 0 -44 43 -44 60 0 17 31 60 44 60 6 0 19 -14 28 -30z m560 0 c16 -28
16 -32 0 -60 -9 -16 -22 -30 -28 -30 -13 0 -44 43 -44 60 0 17 31 60 44 60 6
0 19 -14 28 -30z m1156 7 c20 -16 15 -75 -8 -87 -11 -6 -25 -8 -30 -5 -6 3
-10 -1 -10 -9 0 -9 -7 -16 -15 -16 -12 0 -15 14 -15 63 l0 64 33 0 c17 0 38
-4 45 -10z m96 -3 c26 -25 20 -44 -15 -44 -18 0 -28 -4 -24 -10 4 -6 15 -8 25
-5 26 8 35 -12 11 -24 -13 -8 -28 -8 -45 -1 -21 8 -26 16 -26 44 0 50 42 73
74 40z m194 3 c18 -14 16 -87 -3 -87 -11 0 -15 11 -15 36 0 45 -24 42 -28 -4
-2 -20 -9 -32 -18 -32 -10 0 -14 13 -14 49 0 49 0 50 33 49 17 0 38 -5 45 -11z
m96 -3 c26 -25 20 -44 -15 -44 -18 0 -28 -4 -24 -10 4 -6 15 -8 25 -5 26 8 35
-12 11 -24 -13 -8 -28 -8 -45 -1 -21 8 -26 16 -26 44 0 50 42 73 74 40z m544
4 c8 -8 12 -8 12 -1 0 6 16 11 35 11 39 0 46 -16 15 -36 -12 -7 -20 -23 -20
-38 0 -21 -4 -25 -19 -21 -10 2 -26 0 -35 -5 -24 -14 -66 16 -66 47 0 44 50
71 78 43z m158 -2 c16 -13 21 -12 36 1 10 9 25 12 37 8 28 -9 27 -25 -1 -26
l-23 0 23 -9 c29 -12 30 -55 1 -63 -27 -7 -49 1 -49 20 0 10 7 13 23 8 19 -5
20 -5 4 5 -15 10 -22 7 -43 -15 -36 -39 -83 -21 -84 32 0 24 24 53 44 53 7 0
21 -6 32 -14z m178 -2 c26 -25 20 -44 -15 -44 -18 0 -28 -4 -24 -10 4 -6 15
-8 25 -5 26 8 35 -12 11 -24 -13 -8 -28 -8 -45 -1 -21 8 -26 16 -26 44 0 50
42 73 74 40z m123 -4 c7 -26 20 -26 28 0 3 11 13 20 21 20 18 0 18 -5 -2 -57
-21 -55 -48 -58 -64 -7 -15 45 -44 43 -48 -4 -2 -20 -9 -32 -18 -32 -10 0 -14
13 -14 48 l0 48 46 2 c38 1 47 -2 51 -18z m182 11 c17 -11 5 -32 -14 -25 -18
7 -32 -23 -18 -37 16 -16 40 0 47 31 10 52 86 50 86 -1 0 -14 -7 -19 -25 -19
-14 0 -25 -5 -25 -11 0 -7 10 -9 25 -5 18 5 25 2 25 -8 0 -23 -38 -30 -65 -12
-14 9 -25 12 -25 7 0 -16 -38 -23 -60 -11 -26 14 -28 74 -2 89 21 13 33 13 51
2z m-1849 -36 c0 -10 -10 -15 -30 -15 -20 0 -30 5 -30 15 0 10 10 15 30 15 20
0 30 -5 30 -15z m880 0 c0 -10 -10 -15 -30 -15 -20 0 -30 5 -30 15 0 10 10 15
30 15 20 0 30 -5 30 -15z m-1232 -498 c2 -53 0 -67 -12 -67 -10 0 -15 16 -18
63 -4 68 -2 80 15 74 7 -2 13 -31 15 -70z m242 3 c0 -56 -3 -70 -15 -70 -12 0
-15 14 -15 70 0 56 3 70 15 70 12 0 15 -14 15 -70z m48 -3 c2 -55 0 -67 -13
-67 -12 0 -15 14 -15 71 0 52 3 70 13 67 7 -3 13 -29 15 -71z m644 63 c2 -5 1
-37 0 -70 -3 -43 -8 -60 -18 -60 -11 0 -14 15 -14 63 0 35 3 67 7 70 9 10 21
9 25 -3z m646 -63 c2 -55 0 -67 -13 -67 -12 0 -15 14 -15 71 0 52 3 70 13 67
7 -3 13 -29 15 -71z m-4224 47 c9 -8 16 -31 16 -49 0 -46 -22 -65 -76 -65
l-44 0 0 65 0 65 44 0 c27 0 51 -6 60 -16z m167 -19 c7 -19 16 -35 20 -35 4 0
13 16 19 35 8 24 18 35 31 35 20 0 22 7 -28 -117 -3 -7 -13 -13 -23 -13 -12 0
-24 18 -41 62 -12 34 -25 56 -27 50 -2 -7 -15 -12 -28 -12 -13 0 -24 -4 -24
-10 0 -5 9 -10 20 -10 11 0 20 -7 20 -15 0 -8 -9 -15 -20 -15 -11 0 -20 -7
-20 -15 0 -9 9 -15 25 -15 14 0 25 -4 25 -10 0 -5 -20 -10 -45 -10 l-45 0 0
65 0 65 64 0 65 0 12 -35z m335 0 c1 -16 5 -38 9 -48 12 -28 -13 -47 -61 -47
l-44 0 0 66 0 65 48 -3 c45 -3 47 -5 48 -33z m56 -12 c3 -41 6 -48 26 -51 20
-3 22 0 22 47 0 45 2 51 21 51 20 0 21 -4 17 -52 -8 -77 -55 -106 -105 -66
-19 15 -17 118 1 118 11 0 16 -14 18 -47z m128 -18 c0 -51 -3 -65 -15 -65 -12
0 -15 14 -15 65 0 51 3 65 15 65 12 0 15 -14 15 -65z m60 10 c0 -52 1 -55 25
-55 14 0 25 -4 25 -10 0 -5 -18 -10 -40 -10 l-40 0 0 65 c0 51 3 65 15 65 12
0 15 -13 15 -55z m164 33 c9 -12 16 -32 16 -43 0 -41 -28 -65 -76 -65 l-44 0
0 65 0 65 44 0 c35 0 48 -5 60 -22z m356 7 c0 -9 -9 -15 -25 -15 -14 0 -25 -4
-25 -10 0 -5 9 -10 20 -10 11 0 20 -7 20 -15 0 -8 -9 -15 -20 -15 -11 0 -20
-7 -20 -15 0 -9 9 -15 25 -15 14 0 25 -4 25 -10 0 -5 -20 -10 -45 -10 l-45 0
0 50 c0 43 -3 50 -20 50 -17 0 -20 -7 -20 -50 0 -38 -4 -50 -15 -50 -11 0 -15
12 -15 50 0 43 -3 50 -20 50 -11 0 -20 7 -20 15 0 12 18 15 100 15 82 0 100
-3 100 -15z m210 0 c0 -8 -9 -15 -20 -15 -17 0 -20 -7 -20 -50 0 -38 -4 -50
-15 -50 -11 0 -15 12 -15 50 l0 50 -52 0 c-53 0 -55 -4 -16 -24 34 -17 37 -63
5 -75 -31 -12 -67 -3 -67 16 0 11 7 14 25 11 37 -8 40 9 5 27 -31 16 -39 42
-19 62 7 7 49 12 100 12 72 1 89 -2 89 -14z m250 1 c21 -26 8 -60 -27 -71 -22
-6 -33 -15 -33 -27 0 -10 -7 -18 -15 -18 -12 0 -15 14 -15 65 l0 65 39 0 c21
0 44 -6 51 -14z m52 -33 c3 -41 6 -48 26 -51 20 -3 22 0 22 47 0 45 2 51 21
51 20 0 21 -4 17 -52 -8 -77 -55 -106 -105 -66 -19 15 -17 118 1 118 11 0 16
-14 18 -47z m185 35 c6 -7 10 -35 9 -63 l-1 -50 -47 -3 -48 -3 0 65 0 66 39 0
c21 0 43 -6 48 -12z m63 -43 c0 -52 1 -55 25 -55 14 0 25 -4 25 -10 0 -5 -18
-10 -40 -10 l-40 0 0 65 c0 51 3 65 15 65 12 0 15 -13 15 -55z m90 -10 c0 -51
-3 -65 -15 -65 -12 0 -15 14 -15 65 0 51 3 65 15 65 12 0 15 -14 15 -65z m102
50 c-1 -5 -11 -10 -22 -10 -31 -1 -35 -14 -7 -24 32 -12 40 -26 33 -55 -7 -28
-38 -38 -73 -25 -27 10 -21 33 7 26 34 -9 44 10 14 24 -29 14 -40 38 -30 65 7
17 83 16 78 -1z m48 -10 c0 -20 5 -25 25 -25 20 0 25 5 25 25 0 18 5 25 20 25
18 0 20 -7 20 -65 0 -58 -2 -65 -20 -65 -15 0 -20 7 -20 25 0 20 -5 25 -25 25
-20 0 -25 -5 -25 -25 0 -16 -6 -25 -15 -25 -12 0 -15 14 -15 65 0 51 3 65 15
65 9 0 15 -9 15 -25z m329 3 c11 -29 -8 -62 -38 -66 -13 -2 -21 -11 -21 -23 0
-12 -7 -19 -20 -19 -18 0 -20 7 -20 65 l0 65 45 0 c38 0 47 -4 54 -22z m669 5
c11 -20 6 -41 -15 -64 -12 -14 -11 -17 7 -22 39 -10 21 -27 -30 -27 -27 0 -50
4 -50 8 0 5 14 21 30 37 40 38 39 56 -1 48 -30 -6 -31 -5 -20 16 15 27 66 29
79 4z m172 -20 l22 -38 19 38 c31 59 49 49 49 -28 0 -51 -3 -65 -15 -65 -10 0
-15 10 -16 28 l0 27 -16 -22 c-20 -30 -29 -29 -47 5 l-15 27 -1 -32 c0 -23 -5
-33 -15 -33 -12 0 -15 14 -15 65 0 77 16 86 50 28z m-3080 -16 c13 -24 13 -30
0 -54 -22 -38 -37 -39 -59 -3 -18 30 -18 34 -2 61 19 35 40 34 61 -4z m665 3
c15 -28 14 -33 -2 -60 -22 -38 -38 -38 -58 0 -14 27 -14 33 0 60 20 38 40 38
60 0z m560 0 c15 -28 14 -33 -2 -60 -22 -38 -38 -38 -58 0 -14 27 -14 33 0 60
20 38 40 38 60 0z m1148 13 c9 -2 17 -14 18 -26 0 -15 2 -17 6 -7 7 19 33 40
49 40 17 0 44 -28 44 -46 0 -9 -11 -14 -31 -14 -18 0 -28 -4 -24 -10 4 -6 15
-8 25 -5 26 8 35 -12 11 -24 -26 -14 -71 2 -72 26 0 15 -2 14 -9 -3 -9 -23
-36 -38 -51 -28 -5 3 -9 -2 -9 -10 0 -9 -7 -16 -15 -16 -12 0 -15 14 -15 65 0
64 0 65 28 64 15 -1 35 -4 45 -6z m290 0 c23 -6 25 -93 2 -93 -10 0 -15 11
-15 35 0 19 -4 35 -10 35 -5 0 -10 -16 -10 -35 0 -28 -4 -35 -20 -35 -17 0
-20 7 -20 50 0 48 1 50 28 49 15 -1 35 -4 45 -6z m98 -3 c10 -6 19 -20 19 -30
0 -16 -7 -20 -31 -20 -18 0 -28 -4 -24 -10 4 -6 15 -8 25 -5 18 6 38 -11 26
-22 -12 -12 -68 -6 -77 8 -14 22 -11 56 7 73 18 19 28 20 55 6z m629 -4 c0 -6
-9 -17 -20 -24 -11 -7 -20 -23 -20 -37 0 -19 -5 -25 -22 -24 -13 1 -31 -2 -40
-5 -19 -9 -58 25 -58 49 0 33 35 52 98 52 40 0 62 -4 62 -11z m76 0 c16 -13
21 -12 36 1 9 8 24 13 34 11 23 -4 30 -28 8 -28 -16 0 -16 -1 2 -14 17 -13 20
-12 27 9 5 13 17 27 27 30 26 8 60 -12 60 -35 0 -16 -7 -20 -31 -20 -18 0 -28
-4 -24 -10 4 -6 15 -8 25 -5 18 6 38 -11 26 -22 -11 -12 -68 -6 -76 7 -7 11
-11 10 -25 -3 -18 -19 -33 -21 -54 -8 -20 13 -5 30 22 24 20 -4 20 -4 -3 9
-23 13 -26 12 -37 -8 -15 -26 -37 -36 -60 -27 -36 13 -45 60 -17 87 19 20 35
20 60 2z m306 -14 l10 -27 10 28 c5 15 16 27 24 27 18 0 18 -10 -2 -60 -21
-51 -45 -53 -63 -4 -16 45 -45 43 -49 -4 -2 -20 -9 -32 -18 -32 -10 0 -14 13
-14 48 l0 48 45 2 c41 1 47 -1 57 -26z m178 18 c17 -10 6 -25 -18 -25 -10 0
-17 -8 -17 -20 0 -15 6 -19 23 -18 13 2 22 -3 22 -11 0 -28 -54 -29 -72 -2
-13 19 -9 54 8 70 18 18 32 20 54 6z m86 2 c6 -4 14 -17 18 -29 7 -21 4 -23
-24 -23 -19 0 -29 -4 -25 -10 4 -6 15 -8 26 -5 13 4 19 2 19 -8 0 -14 -20 -27
-41 -27 -14 0 -49 39 -49 55 0 18 35 55 53 55 6 0 17 -4 23 -8z m-1936 -37 c0
-10 -10 -15 -30 -15 -20 0 -30 5 -30 15 0 10 10 15 30 15 20 0 30 -5 30 -15z
m880 0 c0 -10 -10 -15 -30 -15 -20 0 -30 5 -30 15 0 10 10 15 30 15 20 0 30
-5 30 -15z m4748 -2718 c2 -53 0 -67 -12 -67 -10 0 -15 16 -18 63 -4 68 -2 80
15 74 7 -2 13 -31 15 -70z m242 3 c0 -56 -3 -70 -15 -70 -12 0 -15 14 -15 70
0 56 3 70 15 70 12 0 15 -14 15 -70z m48 -3 c2 -55 0 -67 -13 -67 -12 0 -15
14 -15 71 0 52 3 70 13 67 7 -3 13 -29 15 -71z m-2934 47 c9 -8 16 -31 16 -49
0 -46 -22 -65 -76 -65 l-44 0 0 65 0 65 44 0 c27 0 51 -6 60 -16z m167 -19 c7
-19 16 -35 20 -35 4 0 13 16 19 35 8 24 18 35 31 35 20 0 22 7 -28 -117 -3 -7
-13 -13 -23 -13 -12 0 -24 18 -41 62 -12 34 -25 56 -27 50 -2 -7 -15 -12 -28
-12 -13 0 -24 -4 -24 -10 0 -5 9 -10 20 -10 11 0 20 -7 20 -15 0 -8 -9 -15
-20 -15 -11 0 -20 -7 -20 -15 0 -9 9 -15 25 -15 14 0 25 -4 25 -10 0 -5 -20
-10 -45 -10 l-45 0 0 65 0 65 64 0 65 0 12 -35z m335 0 c1 -16 5 -38 9 -48 12
-28 -13 -47 -61 -47 l-44 0 0 66 0 65 48 -3 c45 -3 47 -5 48 -33z m56 -12 c3
-41 6 -48 26 -51 20 -3 22 0 22 47 0 45 2 51 21 51 20 0 21 -4 17 -52 -8 -77
-55 -106 -105 -66 -19 15 -17 118 1 118 11 0 16 -14 18 -47z m128 -18 c0 -51
-3 -65 -15 -65 -12 0 -15 14 -15 65 0 51 3 65 15 65 12 0 15 -14 15 -65z m60
10 c0 -52 1 -55 25 -55 14 0 25 -4 25 -10 0 -5 -18 -10 -40 -10 l-40 0 0 65
c0 51 3 65 15 65 12 0 15 -13 15 -55z m164 33 c9 -12 16 -32 16 -43 0 -41 -28
-65 -76 -65 l-44 0 0 65 0 65 44 0 c35 0 48 -5 60 -22z m356 7 c0 -9 -9 -15
-25 -15 -14 0 -25 -4 -25 -10 0 -5 9 -10 20 -10 11 0 20 -7 20 -15 0 -8 -9
-15 -20 -15 -11 0 -20 -7 -20 -15 0 -9 9 -15 25 -15 14 0 25 -4 25 -10 0 -5
-20 -10 -45 -10 l-45 0 0 50 c0 43 -3 50 -20 50 -17 0 -20 -7 -20 -50 0 -38
-4 -50 -15 -50 -11 0 -15 12 -15 50 0 43 -3 50 -20 50 -11 0 -20 7 -20 15 0
12 18 15 100 15 82 0 100 -3 100 -15z m97 -2 c3 -7 -9 -13 -29 -15 l-33 -3 30
-15 c41 -20 47 -66 12 -79 -31 -12 -67 -3 -67 16 0 11 7 14 25 11 37 -8 40 9
5 27 -31 16 -39 42 -18 63 16 16 70 12 75 -5z m113 2 c0 -8 -9 -15 -20 -15
-17 0 -20 -7 -20 -50 0 -38 -4 -50 -15 -50 -11 0 -15 11 -15 43 0 23 -3 52 -6
65 -6 20 -3 22 35 22 30 0 41 -4 41 -15z m250 1 c21 -26 8 -60 -27 -71 -22 -6
-33 -15 -33 -27 0 -10 -7 -18 -15 -18 -12 0 -15 14 -15 65 l0 65 39 0 c21 0
44 -6 51 -14z m52 -33 c3 -41 6 -48 26 -51 20 -3 22 0 22 47 0 45 2 51 21 51
20 0 21 -4 17 -52 -8 -77 -55 -106 -105 -66 -19 15 -17 118 1 118 11 0 16 -14
18 -47z m194 4 c1 -20 4 -40 7 -44 4 -3 2 -14 -4 -24 -7 -14 -21 -19 -54 -19
l-45 0 0 66 0 65 48 -3 47 -3 1 -38z m54 -12 c0 -52 1 -55 25 -55 14 0 25 -4
25 -10 0 -5 -18 -10 -40 -10 l-40 0 0 65 c0 51 3 65 15 65 12 0 15 -13 15 -55z
m90 -10 c0 -51 -3 -65 -15 -65 -12 0 -15 14 -15 65 0 51 3 65 15 65 12 0 15
-14 15 -65z m102 50 c-1 -5 -11 -10 -22 -10 -31 -1 -35 -14 -7 -24 32 -12 40
-26 33 -55 -7 -28 -38 -38 -73 -25 -27 10 -21 33 7 26 34 -9 44 10 14 24 -29
14 -40 38 -30 65 7 17 83 16 78 -1z m48 -10 c0 -20 5 -25 25 -25 20 0 25 5 25
25 0 18 5 25 20 25 18 0 20 -7 20 -65 0 -58 -2 -65 -20 -65 -15 0 -20 7 -20
25 0 20 -5 25 -25 25 -20 0 -25 -5 -25 -25 0 -16 -6 -25 -15 -25 -12 0 -15 14
-15 65 0 51 3 65 15 65 9 0 15 -9 15 -25z m330 10 c21 -25 4 -65 -30 -72 -21
-4 -30 -11 -30 -24 0 -11 -7 -19 -15 -19 -12 0 -15 14 -15 65 l0 65 39 0 c22
0 44 -6 51 -15z m672 -32 c2 -27 2 -56 0 -65 -5 -22 -32 -24 -32 -3 0 10 -10
15 -30 15 -37 0 -38 13 -4 62 38 54 61 51 66 -9z m178 -8 c0 -55 0 -55 31 -55
18 0 28 4 24 10 -10 16 4 49 26 61 25 13 59 3 59 -18 0 -11 5 -9 19 8 17 21
22 22 53 12 22 -6 41 -7 52 -1 22 12 56 1 56 -20 0 -13 4 -12 20 5 30 32 96
29 114 -5 l13 -25 7 27 c3 14 13 26 21 26 20 0 19 -10 -7 -75 -16 -38 -29 -55
-41 -55 -14 0 -16 4 -9 18 14 27 -11 75 -41 79 -29 4 -40 -7 -31 -31 4 -11 13
-14 24 -11 27 8 34 -12 10 -25 -17 -9 -27 -8 -45 4 -13 9 -25 11 -27 6 -2 -5
-21 -11 -43 -12 -22 -2 -48 -11 -57 -20 -36 -36 -83 -17 -76 31 4 29 3 31 -29
31 -21 0 -32 -4 -28 -10 4 -6 15 -8 26 -5 13 4 19 2 19 -9 0 -17 -34 -31 -52
-20 -6 4 -35 6 -65 5 l-53 -2 0 65 c0 52 3 66 15 66 12 0 15 -13 15 -55z
m-3090 2 c13 -24 13 -30 0 -54 -22 -38 -37 -39 -59 -3 -18 30 -18 34 -2 61 19
35 40 34 61 -4z m665 3 c15 -28 14 -33 -2 -60 -22 -38 -38 -38 -58 0 -14 27
-14 33 0 60 20 38 40 38 60 0z m560 0 c15 -28 14 -33 -2 -60 -22 -38 -38 -38
-58 0 -14 27 -14 33 0 60 20 38 40 38 60 0z m1148 13 c9 -2 17 -14 18 -26 0
-15 2 -17 6 -7 7 19 33 40 49 40 17 0 44 -28 44 -46 0 -9 -11 -14 -31 -14 -18
0 -28 -4 -24 -10 4 -6 15 -8 25 -5 26 8 35 -12 11 -24 -26 -14 -71 2 -72 26 0
15 -2 14 -9 -3 -9 -23 -36 -38 -51 -28 -5 3 -9 -2 -9 -10 0 -9 -7 -16 -15 -16
-12 0 -15 14 -15 65 0 64 0 65 28 64 15 -1 35 -4 45 -6z m290 0 c23 -6 25 -93
2 -93 -10 0 -15 11 -15 35 0 19 -4 35 -10 35 -5 0 -10 -16 -10 -35 0 -28 -4
-35 -20 -35 -17 0 -20 7 -20 50 0 48 1 50 28 49 15 -1 35 -4 45 -6z m98 -3
c10 -6 19 -20 19 -30 0 -16 -7 -20 -31 -20 -18 0 -28 -4 -24 -10 4 -6 15 -8
25 -5 18 6 38 -11 26 -22 -12 -12 -68 -6 -77 8 -14 22 -11 56 7 73 18 19 28
20 55 6z m-661 -35 c0 -10 -10 -15 -30 -15 -20 0 -30 5 -30 15 0 10 10 15 30
15 20 0 30 -5 30 -15z m910 0 c0 -9 -9 -15 -25 -15 -16 0 -25 6 -25 15 0 9 9
15 25 15 16 0 25 -6 25 -15z m2068 -287 l-3 -283 -180 -3 c-99 -2 -199 0 -222
3 l-43 6 0 70 0 69 -1795 0 -1796 0 3 138 3 137 1513 3 1512 2 0 70 0 70 505
0 505 0 -2 -282z m4452 -29 c24 -44 -5 -105 -47 -97 -27 5 -33 114 -6 120 25
6 42 -1 53 -23z m-6972 -262 c3 -62 2 -67 -17 -67 -19 0 -21 6 -21 63 0 35 3
67 7 71 17 17 28 -6 31 -67z m242 3 c0 -56 -3 -70 -15 -70 -12 0 -15 14 -15
70 0 56 3 70 15 70 12 0 15 -14 15 -70z m48 -3 c3 -62 2 -67 -17 -67 -19 0
-21 6 -21 63 0 35 3 67 7 71 17 17 28 -6 31 -67z m640 0 c2 -55 0 -67 -13 -67
-12 0 -15 14 -15 71 0 52 3 70 13 67 7 -3 13 -29 15 -71z m650 0 c2 -53 0 -67
-12 -67 -10 0 -15 16 -18 63 -4 68 -2 80 15 74 7 -2 13 -31 15 -70z m-4226 46
c22 -20 23 -70 1 -95 -11 -12 -30 -18 -60 -18 l-43 0 0 65 0 65 42 0 c24 0 49
-7 60 -17z m171 -25 l15 -43 11 30 c6 17 14 36 16 43 5 14 35 17 35 3 0 -5
-10 -35 -22 -66 -28 -73 -52 -73 -80 0 -18 49 -20 51 -54 47 -39 -5 -47 -22
-9 -22 16 0 25 -6 25 -15 0 -9 -9 -15 -25 -15 -16 0 -25 -6 -25 -15 0 -10 10
-15 30 -15 17 0 30 -4 30 -10 0 -5 -20 -10 -45 -10 l-45 0 0 65 0 65 64 0 64
0 15 -42z m333 -1 c1 -20 4 -40 7 -44 4 -3 2 -14 -4 -24 -7 -14 -21 -19 -54
-19 l-45 0 0 66 0 65 48 -3 47 -3 1 -38z m54 -8 c0 -47 2 -50 23 -47 19 3 22
10 25 51 2 33 7 47 18 47 18 0 20 -103 2 -118 -53 -41 -108 -4 -108 73 0 38 3
45 20 45 17 0 20 -7 20 -51z m130 -14 c0 -51 -3 -65 -15 -65 -12 0 -15 14 -15
65 0 51 3 65 15 65 12 0 15 -14 15 -65z m50 10 c0 -54 0 -55 30 -55 30 0 30 1
30 55 l0 55 44 0 c67 0 100 -44 74 -97 -13 -27 -15 -28 -111 -31 l-97 -3 0 66
c0 51 3 65 15 65 12 0 15 -13 15 -55z m368 43 c-3 -7 -13 -13 -23 -13 -10 0
-20 6 -22 13 -3 7 5 12 22 12 17 0 25 -5 23 -12z m162 -3 c0 -10 -10 -15 -30
-15 -16 0 -30 -4 -30 -10 0 -5 11 -10 25 -10 16 0 25 -6 25 -15 0 -9 -9 -15
-25 -15 -16 0 -25 -6 -25 -16 0 -13 10 -15 61 -11 33 3 63 7 66 10 2 3 -8 11
-24 19 -21 10 -28 20 -28 43 l0 30 98 3 c81 2 97 0 97 -13 0 -8 -9 -15 -20
-15 -17 0 -20 -7 -20 -50 0 -38 -4 -50 -15 -50 -11 0 -15 12 -15 50 0 54 4 50
-65 53 -32 1 -33 -12 -3 -27 42 -21 32 -78 -13 -77 -13 0 -52 0 -86 0 l-63 0
0 51 c0 43 -3 50 -19 50 -17 0 -21 -8 -24 -52 -3 -50 -3 -49 -5 15 l-2 67 70
0 c56 0 70 -3 70 -15z m458 3 c9 -9 12 -9 12 0 0 7 9 12 20 12 17 0 20 -7 20
-51 0 -47 2 -50 23 -47 19 3 22 10 25 51 2 34 7 47 18 47 12 0 14 -12 12 -57
-3 -52 -6 -59 -31 -71 -24 -12 -31 -11 -52 2 -14 9 -27 27 -31 41 -5 21 -8 23
-21 10 -8 -8 -23 -15 -34 -15 -12 0 -19 -7 -19 -20 0 -11 -7 -20 -15 -20 -12
0 -15 14 -15 65 l0 65 38 0 c21 0 43 -5 50 -12z m243 -4 c10 -12 10 -20 1 -34
-8 -14 -8 -20 0 -22 7 -3 9 -14 4 -31 -6 -24 -11 -27 -51 -27 l-45 0 0 65 0
65 39 0 c23 0 44 -6 52 -16z m49 -39 c0 -54 0 -55 30 -55 17 0 30 -4 30 -10 0
-5 -20 -10 -45 -10 l-45 0 0 65 c0 51 3 65 15 65 12 0 15 -13 15 -55z m100
-10 c0 -51 -3 -65 -15 -65 -12 0 -15 14 -15 65 0 51 3 65 15 65 12 0 15 -14
15 -65z m100 51 c0 -8 -12 -16 -27 -18 l-28 -4 28 -14 c57 -28 19 -108 -39
-81 -32 14 -30 33 3 29 34 -4 42 18 10 26 -55 13 -39 76 18 76 24 0 35 -5 35
-14z m50 -11 c0 -20 5 -25 25 -25 20 0 25 5 25 25 0 16 6 25 15 25 12 0 15
-14 15 -65 0 -51 -3 -65 -15 -65 -9 0 -15 9 -15 25 0 20 -5 25 -25 25 -20 0
-25 -5 -25 -25 0 -16 -6 -25 -15 -25 -12 0 -15 14 -15 65 0 51 3 65 15 65 9 0
15 -9 15 -25z m318 13 c27 -27 7 -78 -30 -78 -11 0 -18 -7 -18 -20 0 -13 -7
-20 -20 -20 -18 0 -20 7 -20 65 l0 65 38 0 c21 0 43 -5 50 -12z m680 0 c-3 -7
-15 -15 -29 -18 l-24 -6 22 -6 c27 -7 37 -29 29 -62 -6 -25 -34 -37 -66 -29
-31 8 -25 34 8 31 19 -2 27 2 27 12 0 9 -11 16 -28 18 -21 3 -27 8 -23 19 3 8
6 23 6 34 0 16 7 19 41 19 28 0 39 -4 37 -12z m171 -25 l19 -38 18 38 c11 22
25 37 36 37 16 0 18 -9 18 -65 0 -51 -3 -65 -15 -65 -10 0 -15 10 -15 33 l-1
32 -15 -27 c-19 -37 -37 -35 -57 5 l-16 32 0 -37 c-1 -27 -5 -38 -16 -38 -12
0 -15 14 -15 65 0 58 2 65 20 65 13 0 26 -13 39 -37z m-3084 -9 c16 -25 16
-29 1 -60 -20 -42 -36 -43 -59 -3 -16 29 -16 32 0 60 21 36 36 37 58 3z m665
-7 c13 -24 13 -30 0 -54 -22 -38 -37 -39 -59 -3 -18 30 -18 34 -2 61 19 35 40
34 61 -4z m562 3 c16 -28 16 -32 0 -60 -9 -16 -22 -30 -28 -30 -13 0 -44 43
-44 60 0 17 31 60 44 60 6 0 19 -14 28 -30z m1160 1 c10 -17 12 -17 29 0 30
30 61 22 73 -18 7 -21 4 -23 -24 -23 -19 0 -29 -4 -25 -10 4 -6 15 -8 26 -5
13 4 19 2 19 -9 0 -8 -9 -17 -20 -21 -21 -7 -60 10 -60 25 0 6 -9 1 -21 -11
-11 -11 -27 -18 -35 -15 -8 3 -14 -1 -14 -9 0 -8 -7 -15 -15 -15 -12 0 -15 14
-15 63 l0 63 36 1 c23 1 39 -5 46 -16z m286 6 c18 -14 16 -87 -3 -87 -11 0
-15 11 -15 36 0 45 -24 42 -28 -4 -2 -20 -9 -32 -18 -32 -10 0 -14 13 -14 49
0 49 0 50 33 49 17 0 38 -5 45 -11z m96 -3 c26 -25 20 -44 -15 -44 -18 0 -28
-4 -24 -10 4 -6 15 -8 25 -5 26 8 35 -12 11 -24 -13 -8 -28 -8 -45 -1 -21 8
-26 16 -26 44 0 50 42 73 74 40z m536 6 c17 -10 6 -25 -18 -25 -10 0 -17 -8
-17 -20 0 -15 6 -19 23 -18 13 2 22 -3 22 -11 0 -28 -54 -29 -72 -2 -13 19 -9
54 8 70 18 18 32 20 54 6z m86 -2 c3 -4 15 -3 26 3 25 14 57 2 68 -24 6 -16 9
-17 9 -6 1 24 27 42 51 34 27 -9 26 -25 -2 -26 l-23 0 23 -9 c29 -12 30 -55 1
-63 -27 -7 -49 1 -49 20 0 10 7 13 23 8 17 -5 19 -4 7 4 -21 15 -40 13 -40 -4
0 -23 -35 -37 -64 -25 -20 7 -26 16 -26 40 0 45 -34 38 -38 -8 -2 -20 -9 -32
-18 -32 -10 0 -14 13 -14 49 0 47 1 49 29 47 16 -1 33 -4 37 -8z m258 -4 c26
-25 20 -44 -15 -44 -18 0 -28 -4 -24 -10 4 -6 15 -8 25 -5 26 8 35 -12 11 -24
-13 -8 -28 -8 -45 -1 -21 8 -26 16 -26 44 0 50 42 73 74 40z m123 -4 c7 -26
20 -26 28 0 3 11 13 20 21 20 18 0 18 -5 -2 -57 -21 -55 -48 -58 -64 -7 -15
45 -44 43 -48 -4 -2 -20 -9 -32 -18 -32 -10 0 -14 13 -14 48 l0 48 46 2 c38 1
47 -2 51 -18z m182 11 c17 -11 5 -32 -14 -25 -18 7 -32 -23 -18 -37 16 -16 40
0 47 31 10 52 86 50 86 -1 0 -14 -7 -19 -25 -19 -14 0 -25 -5 -25 -11 0 -7 10
-9 25 -5 18 5 25 2 25 -8 0 -23 -38 -30 -65 -12 -14 9 -25 12 -25 7 0 -16 -38
-23 -60 -11 -26 14 -28 74 -2 89 21 13 33 13 51 2z m-1859 -36 c0 -9 -9 -15
-25 -15 -16 0 -25 6 -25 15 0 9 9 15 25 15 16 0 25 -6 25 -15z m890 0 c0 -10
-10 -15 -30 -15 -20 0 -30 5 -30 15 0 10 10 15 30 15 20 0 30 -5 30 -15z
m1828 -242 l-3 -238 -310 0 -310 0 -3 73 -3 72 -1704 0 -1705 0 0 90 0 90
1795 0 1795 0 0 75 0 75 225 0 225 0 -2 -237z m-2830 -246 c2 -53 0 -67 -12
-67 -10 0 -15 16 -18 63 -4 68 -2 80 15 74 7 -2 13 -31 15 -70z m242 3 c0 -56
-3 -70 -15 -70 -12 0 -15 14 -15 70 0 56 3 70 15 70 12 0 15 -14 15 -70z m48
-3 c2 -53 0 -67 -12 -67 -10 0 -15 16 -18 63 -4 68 -2 80 15 74 7 -2 13 -31
15 -70z m644 63 c2 -5 1 -37 0 -70 -3 -43 -8 -60 -18 -60 -11 0 -14 15 -14 63
0 35 3 67 7 70 9 10 21 9 25 -3z m646 -63 c2 -55 0 -67 -13 -67 -12 0 -15 14
-15 71 0 52 3 70 13 67 7 -3 13 -29 15 -71z m-4224 47 c9 -8 16 -31 16 -49 0
-46 -22 -65 -76 -65 l-44 0 0 65 0 65 44 0 c27 0 51 -6 60 -16z m167 -19 c7
-19 16 -35 20 -35 4 0 13 16 19 35 8 24 18 35 31 35 20 0 22 7 -28 -117 -3 -7
-13 -13 -23 -13 -12 0 -24 18 -41 62 -12 34 -25 56 -27 50 -2 -7 -15 -12 -28
-12 -13 0 -24 -4 -24 -10 0 -5 9 -10 20 -10 11 0 20 -7 20 -15 0 -8 -9 -15
-20 -15 -11 0 -20 -7 -20 -15 0 -9 9 -15 25 -15 14 0 25 -4 25 -10 0 -5 -20
-10 -45 -10 l-45 0 0 65 0 65 64 0 65 0 12 -35z m335 0 c1 -16 5 -38 9 -48 12
-28 -13 -47 -61 -47 l-44 0 0 66 0 65 48 -3 c45 -3 47 -5 48 -33z m54 -8 c0
-24 5 -48 12 -55 20 -20 38 6 38 54 0 33 4 44 15 44 13 0 15 -11 13 -57 -3
-52 -6 -59 -31 -71 -24 -12 -31 -11 -53 2 -21 14 -24 24 -24 71 0 42 3 55 15
55 11 0 15 -11 15 -43z m130 -22 c0 -51 -3 -65 -15 -65 -12 0 -15 14 -15 65 0
51 3 65 15 65 12 0 15 -14 15 -65z m60 10 c0 -52 1 -55 25 -55 14 0 25 -4 25
-10 0 -5 -20 -10 -45 -10 l-45 0 0 65 c0 58 2 65 20 65 18 0 20 -7 20 -55z
m164 33 c9 -12 16 -32 16 -43 0 -41 -28 -65 -76 -65 l-44 0 0 65 0 65 44 0
c35 0 48 -5 60 -22z m356 7 c0 -9 -9 -15 -25 -15 -14 0 -25 -4 -25 -10 0 -5 9
-10 20 -10 11 0 20 -7 20 -15 0 -8 -9 -15 -20 -15 -11 0 -20 -7 -20 -15 0 -9
9 -15 25 -15 14 0 25 -4 25 -10 0 -5 -20 -10 -45 -10 l-45 0 0 50 c0 43 -3 50
-20 50 -17 0 -20 -7 -20 -50 0 -38 -4 -50 -15 -50 -11 0 -15 12 -15 50 0 43
-3 50 -20 50 -11 0 -20 7 -20 15 0 12 18 15 100 15 82 0 100 -3 100 -15z m147
2 c-2 -7 -28 -14 -58 -17 l-54 -5 30 -15 c41 -20 47 -66 12 -79 -31 -12 -67
-3 -67 16 0 11 7 14 25 11 37 -8 40 9 5 27 -31 16 -39 42 -19 62 16 16 131 15
126 0z m63 -2 c0 -8 -9 -15 -20 -15 -11 0 -20 7 -20 15 0 8 9 15 20 15 11 0
20 -7 20 -15z m250 1 c21 -26 8 -60 -27 -71 -22 -6 -33 -15 -33 -27 0 -10 -7
-18 -15 -18 -12 0 -15 14 -15 65 l0 65 39 0 c21 0 44 -6 51 -14z m52 -33 c3
-41 6 -48 26 -51 20 -3 22 0 22 47 0 45 2 51 21 51 20 0 21 -4 17 -52 -8 -77
-55 -106 -105 -66 -19 15 -17 118 1 118 11 0 16 -14 18 -47z m185 35 c6 -7 10
-35 9 -63 l-1 -50 -47 -3 -48 -3 0 65 0 66 39 0 c21 0 43 -6 48 -12z m63 -43
c0 -52 1 -55 25 -55 14 0 25 -4 25 -10 0 -5 -18 -10 -40 -10 l-40 0 0 65 c0
51 3 65 15 65 12 0 15 -13 15 -55z m90 -10 c0 -51 -3 -65 -15 -65 -12 0 -15
14 -15 65 0 51 3 65 15 65 12 0 15 -14 15 -65z m102 50 c-1 -5 -11 -10 -22
-10 -31 -1 -35 -14 -7 -24 32 -12 40 -26 33 -55 -7 -28 -38 -38 -73 -25 -27
10 -21 33 7 26 34 -9 44 10 14 24 -29 14 -40 38 -30 65 7 17 83 16 78 -1z m48
-10 c0 -20 5 -25 25 -25 20 0 25 5 25 25 0 18 5 25 20 25 18 0 20 -7 20 -65 0
-58 -2 -65 -20 -65 -15 0 -20 7 -20 25 0 20 -5 25 -25 25 -20 0 -25 -5 -25
-25 0 -16 -6 -25 -15 -25 -12 0 -15 14 -15 65 0 51 3 65 15 65 9 0 15 -9 15
-25z m329 3 c11 -29 -8 -62 -38 -66 -13 -2 -21 -11 -21 -23 0 -12 -7 -19 -20
-19 -18 0 -20 7 -20 65 l0 65 45 0 c38 0 47 -4 54 -22z m651 -3 l-23 -25 21 0
c12 0 22 -4 22 -8 0 -4 16 -6 35 -4 27 3 35 1 35 -12 0 -11 -9 -16 -30 -16
-16 0 -30 -4 -30 -10 0 -5 -11 -17 -25 -26 -23 -15 -27 -15 -50 0 -31 20 -32
46 -2 91 15 24 30 35 46 35 l24 0 -23 -25z m190 -12 l22 -38 19 38 c31 59 49
49 49 -28 0 -51 -3 -65 -15 -65 -10 0 -15 10 -16 28 l0 27 -16 -22 c-20 -30
-29 -29 -47 5 l-15 27 -1 -32 c0 -23 -5 -33 -15 -33 -12 0 -15 14 -15 65 0 77
16 86 50 28z m-3080 -16 c13 -24 13 -30 0 -54 -22 -38 -37 -39 -59 -3 -18 30
-18 34 -2 61 19 35 40 34 61 -4z m662 3 c16 -28 16 -32 0 -60 -9 -16 -22 -30
-28 -30 -13 0 -44 43 -44 60 0 17 31 60 44 60 6 0 19 -14 28 -30z m563 0 c15
-28 14 -33 -2 -60 -22 -38 -38 -38 -58 0 -14 27 -14 33 0 60 20 38 40 38 60 0z
m1148 13 c9 -2 17 -14 18 -26 0 -15 2 -17 6 -7 7 19 33 40 49 40 17 0 44 -28
44 -46 0 -9 -11 -14 -31 -14 -18 0 -28 -4 -24 -10 4 -6 15 -8 25 -5 26 8 35
-12 11 -24 -26 -14 -71 2 -72 26 0 15 -2 14 -9 -3 -9 -23 -36 -38 -51 -28 -5
3 -9 -2 -9 -10 0 -9 -7 -16 -15 -16 -12 0 -15 14 -15 65 0 64 0 65 28 64 15
-1 35 -4 45 -6z m290 0 c23 -6 25 -93 2 -93 -10 0 -15 11 -15 35 0 19 -4 35
-10 35 -5 0 -10 -16 -10 -35 0 -28 -4 -35 -20 -35 -17 0 -20 7 -20 50 0 48 1
50 28 49 15 -1 35 -4 45 -6z m98 -3 c10 -6 19 -20 19 -30 0 -16 -7 -20 -31
-20 -18 0 -28 -4 -24 -10 4 -6 15 -8 25 -5 18 6 38 -11 26 -22 -12 -12 -68 -6
-77 8 -14 22 -11 56 7 73 18 19 28 20 55 6z m547 -2 c8 -8 12 -8 12 -1 0 6 16
11 35 11 39 0 46 -16 15 -36 -12 -7 -20 -23 -20 -38 0 -21 -4 -25 -19 -21 -10
2 -26 0 -35 -5 -24 -14 -66 16 -66 47 0 44 50 71 78 43z m158 -2 c16 -13 21
-12 36 1 9 8 24 13 34 11 23 -4 30 -28 8 -28 -16 0 -16 -1 2 -14 17 -13 20
-12 27 9 5 13 17 27 27 30 26 8 60 -12 60 -35 0 -16 -7 -20 -31 -20 -18 0 -28
-4 -24 -10 4 -6 15 -8 25 -5 18 6 38 -11 26 -22 -11 -12 -68 -6 -76 7 -7 11
-11 10 -25 -3 -18 -19 -33 -21 -54 -8 -20 13 -5 30 22 24 20 -4 20 -4 -3 9
-23 13 -26 12 -37 -8 -15 -26 -37 -36 -60 -27 -36 13 -45 60 -17 87 19 20 35
20 60 2z m306 -14 l10 -27 10 28 c5 15 16 27 24 27 18 0 18 -10 -2 -60 -21
-51 -45 -53 -63 -4 -16 45 -45 43 -49 -4 -2 -20 -9 -32 -18 -32 -10 0 -14 13
-14 48 l0 48 45 2 c41 1 47 -1 57 -26z m178 18 c17 -10 6 -25 -18 -25 -10 0
-17 -8 -17 -20 0 -15 6 -19 23 -18 13 2 22 -3 22 -11 0 -28 -54 -29 -72 -2
-13 19 -9 54 8 70 18 18 32 20 54 6z m86 2 c6 -4 14 -17 18 -29 7 -21 4 -23
-24 -23 -19 0 -29 -4 -25 -10 4 -6 15 -8 26 -5 13 4 19 2 19 -8 0 -14 -20 -27
-41 -27 -14 0 -49 39 -49 55 0 18 35 55 53 55 6 0 17 -4 23 -8z m-1936 -37 c0
-10 -10 -15 -30 -15 -20 0 -30 5 -30 15 0 10 10 15 30 15 20 0 30 -5 30 -15z
m-965 -1209 c18 -27 7 -69 -20 -80 -27 -10 -35 2 -35 55 0 42 3 49 20 49 11 0
27 -11 35 -24z m-78 -38 c-3 -8 -6 -5 -6 6 -1 11 2 17 5 13 3 -3 4 -12 1 -19z
m-3929 -1121 c3 -62 2 -67 -17 -67 -19 0 -21 6 -21 63 0 35 3 67 7 71 17 17
28 -6 31 -67z m242 3 c0 -56 -3 -70 -15 -70 -12 0 -15 14 -15 70 0 56 3 70 15
70 12 0 15 -14 15 -70z m48 -3 c3 -62 2 -67 -17 -67 -19 0 -21 6 -21 63 0 35
3 67 7 71 17 17 28 -6 31 -67z m634 63 c2 -5 1 -37 0 -70 -3 -43 -8 -60 -18
-60 -11 0 -14 15 -14 63 0 35 3 67 7 70 9 10 21 9 25 -3z m646 -63 c2 -55 0
-67 -13 -67 -12 0 -15 14 -15 71 0 52 3 70 13 67 7 -3 13 -29 15 -71z m-4216
46 c22 -20 23 -70 1 -95 -11 -12 -30 -18 -60 -18 l-43 0 0 65 0 65 42 0 c24 0
49 -7 60 -17z m171 -25 l15 -43 11 30 c6 17 14 36 16 43 5 14 35 17 35 3 0 -5
-10 -35 -22 -66 -28 -73 -52 -73 -80 0 -18 49 -20 51 -54 47 -39 -5 -47 -22
-9 -22 16 0 25 -6 25 -15 0 -9 -9 -15 -25 -15 -16 0 -25 -6 -25 -15 0 -10 10
-15 30 -15 17 0 30 -4 30 -10 0 -5 -20 -10 -45 -10 l-45 0 0 65 0 65 64 0 64
0 15 -42z m333 -1 c1 -20 4 -40 7 -44 4 -3 2 -14 -4 -24 -7 -14 -21 -19 -54
-19 l-45 0 0 66 0 65 48 -3 47 -3 1 -38z m54 -8 c0 -47 2 -50 23 -47 19 3 22
10 25 51 2 33 7 47 18 47 18 0 20 -103 2 -118 -53 -41 -108 -4 -108 73 0 38 3
45 20 45 17 0 20 -7 20 -51z m130 -14 c0 -51 -3 -65 -15 -65 -12 0 -15 14 -15
65 0 51 3 65 15 65 12 0 15 -14 15 -65z m50 10 c0 -54 0 -55 30 -55 30 0 30 1
30 55 l0 55 44 0 c67 0 100 -44 74 -97 -13 -27 -15 -28 -111 -31 l-97 -3 0 66
c0 51 3 65 15 65 12 0 15 -13 15 -55z m530 40 c0 -10 -10 -15 -30 -15 -16 0
-30 -4 -30 -10 0 -5 11 -10 25 -10 16 0 25 -6 25 -15 0 -9 -9 -15 -25 -15 -16
0 -25 -6 -25 -16 0 -13 10 -15 61 -11 33 3 63 7 66 10 2 3 -8 11 -24 19 -21
10 -28 20 -28 43 l0 30 98 3 c81 2 97 0 97 -13 0 -8 -9 -15 -20 -15 -17 0 -20
-7 -20 -50 0 -38 -4 -50 -15 -50 -11 0 -15 12 -15 50 0 54 4 50 -65 53 -32 1
-33 -12 -3 -27 42 -21 32 -78 -13 -77 -13 0 -52 0 -86 0 l-63 0 0 51 c0 43 -3
50 -20 50 -17 0 -20 -7 -20 -50 0 -43 -3 -50 -20 -50 -17 0 -20 7 -20 49 0 40
-3 50 -20 54 -11 3 -20 10 -20 16 0 7 36 11 105 11 87 0 105 -3 105 -15z m460
0 c21 -25 4 -65 -30 -72 -21 -4 -30 -11 -30 -24 0 -11 -7 -19 -15 -19 -12 0
-15 14 -15 65 l0 65 39 0 c22 0 44 -6 51 -15z m50 -28 c0 -24 5 -48 12 -55 20
-20 38 6 38 54 0 33 4 44 15 44 13 0 15 -11 13 -57 -3 -52 -6 -59 -31 -71 -24
-12 -31 -11 -53 2 -21 14 -24 24 -24 71 0 42 3 55 15 55 11 0 15 -11 15 -43z
m191 27 c10 -12 10 -20 1 -34 -8 -14 -8 -20 0 -22 7 -3 9 -14 4 -31 -6 -24
-11 -27 -51 -27 l-45 0 0 65 0 65 39 0 c23 0 44 -6 52 -16z m59 -39 c0 -52 1
-55 25 -55 14 0 25 -4 25 -10 0 -5 -20 -10 -45 -10 l-45 0 0 65 c0 58 2 65 20
65 18 0 20 -7 20 -55z m90 -10 c0 -51 -3 -65 -15 -65 -12 0 -15 14 -15 65 0
51 3 65 15 65 12 0 15 -14 15 -65z m100 51 c0 -9 -12 -16 -27 -18 l-28 -3 30
-15 c40 -20 44 -53 10 -76 -21 -13 -31 -15 -50 -6 -33 15 -32 34 2 30 34 -4
42 18 8 26 -19 5 -25 13 -25 35 0 36 6 41 47 41 22 0 33 -5 33 -14z m50 -11
c0 -20 5 -25 25 -25 20 0 25 5 25 25 0 16 6 25 15 25 12 0 15 -14 15 -65 0
-51 -3 -65 -15 -65 -9 0 -15 9 -15 25 0 20 -5 25 -25 25 -20 0 -25 -5 -25 -25
0 -16 -6 -25 -15 -25 -12 0 -15 14 -15 65 0 51 3 65 15 65 9 0 15 -9 15 -25z
m318 13 c27 -27 7 -78 -30 -78 -11 0 -18 -7 -18 -20 0 -13 -7 -20 -20 -20 -18
0 -20 7 -20 65 l0 65 38 0 c21 0 43 -5 50 -12z m842 -25 l22 -38 19 38 c31 59
49 49 49 -28 0 -51 -3 -65 -15 -65 -10 0 -15 10 -16 28 l0 27 -16 -22 c-20
-30 -29 -29 -47 5 l-15 27 -1 -32 c0 -23 -5 -33 -15 -33 -12 0 -15 14 -15 65
0 77 16 86 50 28z m-3075 -9 c16 -25 16 -29 1 -60 -20 -42 -36 -43 -59 -3 -16
29 -16 32 0 60 21 36 36 37 58 3z m665 -7 c13 -24 13 -30 0 -54 -22 -38 -37
-39 -59 -3 -18 30 -18 34 -2 61 19 35 40 34 61 -4z m562 3 c16 -28 16 -32 0
-60 -9 -16 -22 -30 -28 -30 -13 0 -44 43 -44 60 0 17 31 60 44 60 6 0 19 -14
28 -30z m1160 1 c10 -17 12 -17 29 0 30 30 61 22 73 -18 7 -21 4 -23 -24 -23
-19 0 -29 -4 -25 -10 4 -6 15 -8 26 -5 13 4 19 2 19 -9 0 -8 -9 -17 -20 -21
-21 -7 -60 10 -60 25 0 6 -9 1 -21 -11 -11 -11 -27 -18 -35 -15 -8 3 -14 -1
-14 -9 0 -8 -7 -15 -15 -15 -12 0 -15 14 -15 63 l0 63 36 1 c23 1 39 -5 46
-16z m286 6 c18 -14 16 -87 -3 -87 -11 0 -15 11 -15 36 0 45 -24 42 -28 -4 -2
-20 -9 -32 -18 -32 -10 0 -14 13 -14 49 0 49 0 50 33 49 17 0 38 -5 45 -11z
m96 -3 c26 -25 20 -44 -15 -44 -18 0 -28 -4 -24 -10 4 -6 15 -8 25 -5 26 8 35
-12 11 -24 -13 -8 -28 -8 -45 -1 -21 8 -26 16 -26 44 0 50 42 73 74 40z m91
-1 c6 -17 7 -17 16 0 6 9 17 17 24 17 18 0 18 -2 3 -35 -9 -19 -9 -28 0 -37
18 -18 15 -28 -8 -28 -11 0 -20 5 -20 12 0 9 -3 9 -12 0 -7 -7 -20 -12 -30
-12 -17 0 -17 2 -3 24 15 23 15 27 0 50 -17 25 -16 26 3 26 11 0 23 -8 27 -17z
m525 3 c0 -6 -9 -17 -20 -24 -11 -7 -20 -23 -20 -37 0 -19 -5 -25 -22 -24 -13
1 -31 -2 -40 -5 -19 -9 -58 25 -58 49 0 33 35 52 98 52 40 0 62 -4 62 -11z
m76 0 c16 -13 21 -12 36 1 9 8 24 13 34 11 23 -4 30 -28 8 -28 -16 0 -16 -1 2
-14 17 -13 20 -12 27 9 5 13 17 27 27 30 26 8 60 -12 60 -35 0 -16 -7 -20 -31
-20 -18 0 -28 -4 -24 -10 4 -6 15 -8 25 -5 18 6 38 -11 26 -22 -11 -12 -68 -6
-76 7 -7 11 -11 10 -25 -3 -18 -19 -33 -21 -54 -8 -20 13 -5 30 22 24 20 -4
20 -4 -3 9 -23 13 -26 12 -37 -8 -15 -26 -37 -36 -60 -27 -36 13 -45 60 -17
87 19 20 35 20 60 2z m306 -14 l10 -27 10 28 c5 15 16 27 24 27 18 0 18 -10
-2 -60 -21 -51 -45 -53 -63 -4 -16 45 -45 43 -49 -4 -2 -20 -9 -32 -18 -32
-10 0 -14 13 -14 48 l0 48 45 2 c41 1 47 -1 57 -26z m178 18 c17 -10 6 -25
-18 -25 -10 0 -17 -8 -17 -20 0 -15 6 -19 23 -18 13 2 22 -3 22 -11 0 -28 -54
-29 -72 -2 -13 19 -9 54 8 70 18 18 32 20 54 6z m86 2 c6 -4 14 -17 18 -29 7
-21 4 -23 -24 -23 -19 0 -29 -4 -25 -10 4 -6 15 -8 26 -5 13 4 19 2 19 -8 0
-14 -20 -27 -41 -27 -14 0 -49 39 -49 55 0 18 35 55 53 55 6 0 17 -4 23 -8z
m-1936 -37 c0 -9 -9 -15 -25 -15 -16 0 -25 6 -25 15 0 9 9 15 25 15 16 0 25
-6 25 -15z m880 0 c0 -10 -10 -15 -30 -15 -20 0 -30 5 -30 15 0 10 10 15 30
15 20 0 30 -5 30 -15z m-682 -508 c3 -62 2 -67 -17 -67 -18 0 -21 6 -21 42 0
41 0 42 -16 20 -8 -12 -24 -22 -35 -22 -12 0 -19 -7 -19 -20 0 -13 -7 -20 -20
-20 -18 0 -20 7 -20 65 l0 65 45 0 c38 0 47 -4 55 -22 8 -22 9 -22 9 -2 1 11
4 24 8 28 17 17 28 -6 31 -67z m242 3 c0 -56 -3 -70 -15 -70 -12 0 -15 14 -15
70 0 56 3 70 15 70 12 0 15 -14 15 -70z m48 -3 c2 -53 0 -67 -12 -67 -10 0
-15 16 -18 63 -4 68 -2 80 15 74 7 -2 13 -31 15 -70z m634 63 c2 -5 1 -37 0
-70 -3 -43 -8 -60 -18 -60 -11 0 -14 15 -14 63 0 35 3 67 7 70 9 10 21 9 25
-3z m646 -63 c2 -55 0 -67 -13 -67 -12 0 -15 14 -15 71 0 52 3 70 13 67 7 -3
13 -29 15 -71z m-4216 46 c22 -20 23 -70 1 -95 -11 -12 -30 -18 -60 -18 l-43
0 0 65 0 65 42 0 c24 0 49 -7 60 -17z m171 -25 l15 -43 11 30 c6 17 14 36 16
43 5 14 35 17 35 3 0 -5 -10 -35 -22 -66 -28 -73 -52 -73 -80 0 -18 49 -20 51
-54 47 -39 -5 -47 -22 -9 -22 16 0 25 -6 25 -15 0 -9 -9 -15 -25 -15 -16 0
-25 -6 -25 -15 0 -10 10 -15 30 -15 17 0 30 -4 30 -10 0 -5 -20 -10 -45 -10
l-45 0 0 65 0 65 64 0 64 0 15 -42z m333 -1 c1 -20 4 -40 7 -44 4 -3 2 -14 -4
-24 -7 -14 -21 -19 -54 -19 l-45 0 0 66 0 65 48 -3 47 -3 1 -38z m54 0 c0 -24
5 -48 12 -55 20 -20 38 6 38 54 0 33 4 44 15 44 13 0 15 -11 13 -57 -3 -52 -6
-59 -31 -71 -24 -12 -31 -11 -53 2 -21 14 -24 24 -24 71 0 42 3 55 15 55 11 0
15 -11 15 -43z m130 -22 c0 -51 -3 -65 -15 -65 -12 0 -15 14 -15 65 0 51 3 65
15 65 12 0 15 -14 15 -65z m60 10 c0 -52 1 -55 25 -55 24 0 25 3 25 55 l0 55
44 0 c67 0 100 -44 74 -97 -13 -27 -15 -28 -111 -31 l-97 -3 0 66 c0 58 2 65
20 65 18 0 20 -7 20 -55z m520 40 c0 -10 -10 -15 -30 -15 -16 0 -30 -4 -30
-10 0 -5 11 -10 25 -10 16 0 25 -6 25 -15 0 -9 -9 -15 -25 -15 -16 0 -25 -6
-25 -16 0 -13 10 -15 61 -11 33 3 63 7 66 10 2 3 -8 11 -24 19 -21 10 -28 20
-28 43 l0 30 98 3 c81 2 97 0 97 -13 0 -8 -9 -15 -20 -15 -17 0 -20 -7 -20
-50 0 -38 -4 -50 -15 -50 -11 0 -15 12 -15 50 0 54 4 50 -65 53 -32 1 -33 -12
-3 -27 42 -21 32 -78 -13 -77 -13 0 -52 0 -86 0 l-63 0 0 51 c0 43 -3 50 -20
50 -17 0 -20 -7 -20 -50 0 -43 -3 -50 -20 -50 -17 0 -20 7 -20 49 0 40 -3 50
-20 54 -11 3 -20 10 -20 16 0 7 36 11 105 11 87 0 105 -3 105 -15z m460 0 c21
-25 4 -65 -30 -72 -21 -4 -30 -11 -30 -24 0 -11 -7 -19 -15 -19 -12 0 -15 14
-15 65 l0 65 39 0 c22 0 44 -6 51 -15z m50 -28 c0 -24 5 -48 12 -55 20 -20 38
6 38 54 0 33 4 44 15 44 13 0 15 -11 13 -57 -3 -52 -6 -59 -31 -71 -24 -12
-31 -11 -53 2 -21 14 -24 24 -24 71 0 42 3 55 15 55 11 0 15 -11 15 -43z m191
27 c10 -12 10 -20 1 -34 -8 -14 -8 -20 0 -22 7 -3 9 -14 4 -31 -6 -24 -11 -27
-51 -27 l-45 0 0 65 0 65 39 0 c23 0 44 -6 52 -16z m59 -39 c0 -52 1 -55 25
-55 14 0 25 -4 25 -10 0 -5 -20 -10 -45 -10 l-45 0 0 65 c0 58 2 65 20 65 18
0 20 -7 20 -55z m90 -10 c0 -51 -3 -65 -15 -65 -12 0 -15 14 -15 65 0 51 3 65
15 65 12 0 15 -14 15 -65z m100 51 c0 -9 -12 -16 -27 -18 l-28 -3 30 -15 c40
-20 44 -53 10 -76 -21 -13 -31 -15 -50 -6 -33 15 -32 34 2 30 34 -4 42 18 8
26 -19 5 -25 13 -25 35 0 36 6 41 47 41 22 0 33 -5 33 -14z m50 -11 c0 -20 5
-25 25 -25 20 0 25 5 25 25 0 16 6 25 15 25 12 0 15 -14 15 -65 0 -51 -3 -65
-15 -65 -9 0 -15 9 -15 25 0 20 -5 25 -25 25 -20 0 -25 -5 -25 -25 0 -16 -6
-25 -15 -25 -12 0 -15 14 -15 65 0 51 3 65 15 65 9 0 15 -9 15 -25z m1160 -12
l22 -38 19 38 c31 59 49 49 49 -28 0 -51 -3 -65 -15 -65 -10 0 -15 10 -16 28
l0 27 -16 -22 c-20 -30 -29 -29 -47 5 l-15 27 -1 -32 c0 -23 -5 -33 -15 -33
-12 0 -15 14 -15 65 0 77 16 86 50 28z m-3075 -9 c16 -25 16 -29 1 -60 -20
-42 -36 -43 -59 -3 -16 29 -16 32 0 60 21 36 36 37 58 3z m667 -4 c16 -28 16
-32 0 -60 -9 -16 -22 -30 -28 -30 -13 0 -44 43 -44 60 0 17 31 60 44 60 6 0
19 -14 28 -30z m560 0 c16 -28 16 -32 0 -60 -9 -16 -22 -30 -28 -30 -13 0 -44
43 -44 60 0 17 31 60 44 60 6 0 19 -14 28 -30z m1160 1 c10 -17 12 -17 29 0
30 30 61 22 73 -18 7 -21 4 -23 -24 -23 -19 0 -29 -4 -25 -10 4 -6 15 -8 26
-5 13 4 19 2 19 -9 0 -8 -9 -17 -20 -21 -21 -7 -60 10 -60 25 0 6 -9 1 -21
-11 -11 -11 -27 -18 -35 -15 -8 3 -14 -1 -14 -9 0 -8 -7 -15 -15 -15 -12 0
-15 14 -15 63 l0 63 36 1 c23 1 39 -5 46 -16z m286 6 c18 -14 16 -87 -3 -87
-11 0 -15 11 -15 36 0 45 -24 42 -28 -4 -2 -20 -9 -32 -18 -32 -10 0 -14 13
-14 49 0 49 0 50 33 49 17 0 38 -5 45 -11z m96 -3 c26 -25 20 -44 -15 -44 -18
0 -28 -4 -24 -10 4 -6 15 -8 25 -5 26 8 35 -12 11 -24 -13 -8 -28 -8 -45 -1
-21 8 -26 16 -26 44 0 50 42 73 74 40z m89 -10 l14 -27 7 27 c3 14 13 26 21
26 20 0 19 -10 -7 -75 -16 -38 -29 -55 -41 -55 -14 0 -16 4 -9 17 7 11 4 30
-9 61 -23 53 -23 52 -4 52 8 0 21 -12 28 -26z m445 14 c8 -8 12 -8 12 -1 0 6
16 11 35 11 39 0 46 -16 15 -36 -12 -7 -20 -23 -20 -38 0 -21 -4 -25 -19 -21
-10 2 -26 0 -35 -5 -24 -14 -66 16 -66 47 0 44 50 71 78 43z m158 -2 c16 -13
21 -12 36 1 9 8 24 13 34 11 23 -4 30 -28 8 -28 -16 0 -16 -1 2 -14 17 -13 20
-12 27 9 5 13 17 27 27 30 26 8 60 -12 60 -35 0 -16 -7 -20 -31 -20 -18 0 -28
-4 -24 -10 4 -6 15 -8 25 -5 18 6 38 -11 26 -22 -11 -12 -68 -6 -76 7 -7 11
-11 10 -25 -3 -18 -19 -33 -21 -54 -8 -20 13 -5 30 22 24 20 -4 20 -4 -3 9
-23 13 -26 12 -37 -8 -15 -26 -37 -36 -60 -27 -36 13 -45 60 -17 87 19 20 35
20 60 2z m306 -14 l10 -27 10 28 c5 15 16 27 24 27 18 0 18 -10 -2 -60 -21
-51 -45 -53 -63 -4 -16 45 -45 43 -49 -4 -2 -20 -9 -32 -18 -32 -10 0 -14 13
-14 48 l0 48 45 2 c41 1 47 -1 57 -26z m178 18 c17 -10 6 -25 -18 -25 -10 0
-17 -8 -17 -20 0 -15 6 -19 23 -18 13 2 22 -3 22 -11 0 -28 -54 -29 -72 -2
-13 19 -9 54 8 70 18 18 32 20 54 6z m86 2 c6 -4 14 -17 18 -29 7 -21 4 -23
-24 -23 -19 0 -29 -4 -25 -10 4 -6 15 -8 26 -5 13 4 19 2 19 -8 0 -14 -20 -27
-41 -27 -14 0 -49 39 -49 55 0 18 35 55 53 55 6 0 17 -4 23 -8z m-1936 -37 c0
-9 -9 -15 -25 -15 -16 0 -25 6 -25 15 0 9 9 15 25 15 16 0 25 -6 25 -15z m880
0 c0 -10 -10 -15 -30 -15 -20 0 -30 5 -30 15 0 10 10 15 30 15 20 0 30 -5 30
-15z"/>
<path d="M3430 9120 c0 -11 7 -20 15 -20 8 0 15 6 15 14 0 8 -7 16 -15 20 -10
4 -15 -1 -15 -14z"/>
<path d="M820 9090 c0 -44 16 -52 44 -24 28 27 12 64 -26 64 -14 0 -18 -8 -18
-40z"/>
<path d="M1340 9125 c0 -8 7 -15 15 -15 8 0 15 4 15 9 0 5 -7 11 -15 15 -9 3
-15 0 -15 -9z"/>
<path d="M1340 9064 c0 -9 5 -14 12 -12 18 6 21 28 4 28 -9 0 -16 -7 -16 -16z"/>
<path d="M1730 9091 c0 -44 6 -49 34 -28 25 18 18 61 -11 65 -21 3 -23 -1 -23
-37z"/>
<path d="M2560 9120 c0 -11 6 -20 14 -20 24 0 28 18 6 30 -17 9 -20 8 -20 -10z"/>
<path d="M2800 9125 c0 -8 7 -15 15 -15 8 0 15 4 15 9 0 5 -7 11 -15 15 -9 3
-15 0 -15 -9z"/>
<path d="M2800 9064 c0 -9 7 -14 17 -12 25 5 28 28 4 28 -12 0 -21 -6 -21 -16z"/>
<path d="M3584 9085 c-7 -17 4 -37 17 -30 12 8 12 45 -1 45 -6 0 -13 -7 -16
-15z"/>
<path d="M3688 9093 c7 -3 16 -2 19 1 4 3 -2 6 -13 5 -11 0 -14 -3 -6 -6z"/>
<path d="M4520 9089 c0 -5 5 -7 10 -4 6 3 10 8 10 11 0 2 -4 4 -10 4 -5 0 -10
-5 -10 -11z"/>
<path d="M4562 9079 c-8 -13 -8 -20 3 -29 12 -10 15 -9 15 4 0 9 11 21 25 26
33 12 32 17 -4 17 -16 0 -33 -8 -39 -18z"/>
<path d="M4518 9023 c6 -2 18 -2 25 0 6 3 1 5 -13 5 -14 0 -19 -2 -12 -5z"/>
<path d="M3740 8530 c0 -11 7 -20 15 -20 8 0 15 6 15 14 0 8 -7 16 -15 20 -10
4 -15 -1 -15 -14z"/>
<path d="M1130 8500 c0 -44 16 -52 44 -24 28 27 12 64 -26 64 -14 0 -18 -8
-18 -40z"/>
<path d="M1640 8535 c0 -8 6 -15 14 -15 22 0 28 17 10 24 -22 9 -24 8 -24 -9z"/>
<path d="M1640 8474 c0 -9 7 -14 17 -12 25 5 28 28 4 28 -12 0 -21 -6 -21 -16z"/>
<path d="M2040 8501 c0 -44 6 -49 34 -28 25 18 18 61 -11 65 -21 3 -23 -1 -23
-37z"/>
<path d="M2870 8530 c0 -11 6 -20 14 -20 24 0 28 18 6 30 -17 9 -20 8 -20 -10z"/>
<path d="M3110 8535 c0 -8 7 -15 15 -15 8 0 15 4 15 9 0 5 -7 11 -15 15 -9 3
-15 0 -15 -9z"/>
<path d="M3110 8474 c0 -9 7 -14 17 -12 25 5 28 28 4 28 -12 0 -21 -6 -21 -16z"/>
<path d="M3897 8503 c-4 -3 -7 -15 -7 -25 0 -26 24 -17 28 10 3 21 -8 29 -21
15z"/>
<path d="M3998 8503 c7 -3 16 -2 19 1 4 3 -2 6 -13 5 -11 0 -14 -3 -6 -6z"/>
<path d="M4288 8503 c7 -3 16 -2 19 1 4 3 -2 6 -13 5 -11 0 -14 -3 -6 -6z"/>
<path d="M4825 8501 c-10 -18 7 -39 31 -37 34 2 34 41 -1 44 -13 1 -26 -2 -30
-7z"/>
<path d="M4984 8495 c-7 -17 4 -37 17 -30 12 8 12 45 -1 45 -6 0 -13 -7 -16
-15z"/>
<path d="M5168 8503 c7 -3 16 -2 19 1 4 3 -2 6 -13 5 -11 0 -14 -3 -6 -6z"/>
<path d="M590 7990 c0 -43 12 -50 45 -27 27 21 13 67 -20 67 -22 0 -25 -4 -25
-40z"/>
<path d="M1110 8025 c0 -8 7 -15 15 -15 8 0 15 4 15 9 0 5 -7 11 -15 15 -9 3
-15 0 -15 -9z"/>
<path d="M1110 7964 c0 -17 22 -14 28 4 2 7 -3 12 -12 12 -9 0 -16 -7 -16 -16z"/>
<path d="M1500 7991 c0 -44 6 -49 34 -28 25 18 18 61 -11 65 -21 3 -23 -1 -23
-37z"/>
<path d="M2330 8020 c0 -11 6 -20 14 -20 24 0 28 18 6 30 -17 9 -20 8 -20 -10z"/>
<path d="M2570 8025 c0 -8 7 -15 15 -15 8 0 15 4 15 9 0 5 -7 11 -15 15 -9 3
-15 0 -15 -9z"/>
<path d="M2570 7964 c0 -9 7 -14 17 -12 25 5 28 28 4 28 -12 0 -21 -6 -21 -16z"/>
<path d="M3200 8020 c0 -11 7 -20 15 -20 8 0 15 6 15 14 0 8 -7 16 -15 20 -10
4 -15 -1 -15 -14z"/>
<path d="M3354 7985 c-7 -17 4 -37 17 -30 12 8 12 45 -1 45 -6 0 -13 -7 -16
-15z"/>
<path d="M3458 7993 c7 -3 16 -2 19 1 4 3 -2 6 -13 5 -11 0 -14 -3 -6 -6z"/>
<path d="M4290 7976 c0 -19 5 -24 25 -22 35 2 35 41 0 44 -20 1 -25 -3 -25
-22z"/>
<path d="M4444 7985 c-7 -17 4 -37 17 -30 12 8 12 45 -1 45 -6 0 -13 -7 -16
-15z"/>
<path d="M6030 5260 c0 -43 12 -50 45 -27 27 21 13 67 -20 67 -22 0 -25 -4
-25 -40z"/>
<path d="M6550 5295 c0 -8 7 -15 15 -15 8 0 15 4 15 9 0 5 -7 11 -15 15 -9 3
-15 0 -15 -9z"/>
<path d="M6550 5234 c0 -9 5 -14 12 -12 18 6 21 28 4 28 -9 0 -16 -7 -16 -16z"/>
<path d="M6940 5261 c0 -44 6 -49 34 -28 25 18 18 61 -11 65 -21 3 -23 -1 -23
-37z"/>
<path d="M7770 5290 c0 -11 6 -20 14 -20 24 0 28 18 6 30 -17 9 -20 8 -20 -10z"/>
<path d="M8010 5295 c0 -8 6 -15 14 -15 22 0 28 17 10 24 -22 9 -24 8 -24 -9z"/>
<path d="M8010 5234 c0 -9 7 -14 17 -12 25 5 28 28 4 28 -12 0 -21 -6 -21 -16z"/>
<path d="M8640 5290 c0 -11 7 -20 15 -20 8 0 15 6 15 14 0 8 -7 16 -15 20 -10
4 -15 -1 -15 -14z"/>
<path d="M9326 5271 c-4 -7 -5 -15 -2 -18 9 -9 19 4 14 18 -4 11 -6 11 -12 0z"/>
<path d="M9735 5260 c3 -5 8 -10 11 -10 2 0 4 5 4 10 0 6 -5 10 -11 10 -5 0
-7 -4 -4 -10z"/>
<path d="M9776 5246 c-7 -27 3 -35 15 -13 6 9 16 17 24 17 8 0 16 4 19 8 3 5
-8 9 -24 9 -20 0 -30 -6 -34 -21z"/>
<path d="M9738 5193 c7 -3 16 -2 19 1 4 3 -2 6 -13 5 -11 0 -14 -3 -6 -6z"/>
<path d="M8794 5255 c-7 -17 4 -37 17 -30 12 8 12 45 -1 45 -6 0 -13 -7 -16
-15z"/>
<path d="M8898 5263 c7 -3 16 -2 19 1 4 3 -2 6 -13 5 -11 0 -14 -3 -6 -6z"/>
<path d="M6300 4670 c0 -44 16 -52 44 -24 28 27 12 64 -26 64 -14 0 -18 -8
-18 -40z"/>
<path d="M6810 4705 c0 -8 6 -15 14 -15 22 0 28 17 10 24 -22 9 -24 8 -24 -9z"/>
<path d="M6810 4644 c0 -9 7 -14 17 -12 25 5 28 28 4 28 -12 0 -21 -6 -21 -16z"/>
<path d="M7210 4671 c0 -44 6 -49 34 -28 25 18 18 61 -11 65 -21 3 -23 -1 -23
-37z"/>
<path d="M8040 4700 c0 -11 7 -20 15 -20 8 0 15 6 15 14 0 8 -7 16 -15 20 -10
4 -15 -1 -15 -14z"/>
<path d="M8280 4705 c0 -8 7 -15 15 -15 8 0 15 4 15 9 0 5 -7 11 -15 15 -9 3
-15 0 -15 -9z"/>
<path d="M8280 4645 c0 -10 7 -15 18 -13 21 4 19 22 -2 26 -10 2 -16 -3 -16
-13z"/>
<path d="M8910 4699 c0 -12 5 -19 12 -17 18 6 20 25 3 31 -10 5 -15 0 -15 -14z"/>
<path d="M9067 4673 c-4 -3 -7 -15 -7 -25 0 -26 24 -17 28 10 3 21 -8 29 -21
15z"/>
<path d="M9458 4673 c7 -3 16 -2 19 1 4 3 -2 6 -13 5 -11 0 -14 -3 -6 -6z"/>
<path d="M10154 4665 c-7 -17 4 -37 17 -30 12 8 12 45 -1 45 -6 0 -13 -7 -16
-15z"/>
<path d="M10338 4673 c7 -3 16 -2 19 1 4 3 -2 6 -13 5 -11 0 -14 -3 -6 -6z"/>
<path d="M5990 4170 c0 -43 12 -50 45 -27 27 21 13 67 -20 67 -22 0 -25 -4
-25 -40z"/>
<path d="M6510 4205 c0 -8 7 -15 15 -15 8 0 15 4 15 9 0 5 -7 11 -15 15 -9 3
-15 0 -15 -9z"/>
<path d="M6510 4144 c0 -17 22 -14 28 4 2 7 -3 12 -12 12 -9 0 -16 -7 -16 -16z"/>
<path d="M6900 4171 c0 -44 6 -49 34 -28 25 18 18 61 -11 65 -21 3 -23 -1 -23
-37z"/>
<path d="M7730 4200 c0 -11 6 -20 14 -20 24 0 28 18 6 30 -17 9 -20 8 -20 -10z"/>
<path d="M7970 4205 c0 -8 7 -15 15 -15 8 0 15 4 15 9 0 5 -7 11 -15 15 -9 3
-15 0 -15 -9z"/>
<path d="M7970 4144 c0 -9 7 -14 17 -12 25 5 28 28 4 28 -12 0 -21 -6 -21 -16z"/>
<path d="M8600 4200 c0 -11 7 -20 15 -20 8 0 15 6 15 14 0 8 -7 16 -15 20 -10
4 -15 -1 -15 -14z"/>
<path d="M9274 4159 c-10 -17 13 -36 27 -22 12 12 4 33 -11 33 -5 0 -12 -5
-16 -11z"/>
<path d="M8754 4165 c-7 -17 4 -37 17 -30 12 8 12 45 -1 45 -6 0 -13 -7 -16
-15z"/>
<path d="M8858 4173 c7 -3 16 -2 19 1 4 3 -2 6 -13 5 -11 0 -14 -3 -6 -6z"/>
<path d="M9685 4171 c-10 -18 7 -39 31 -37 34 2 34 41 -1 44 -13 1 -26 -2 -30
-7z"/>
<path d="M9844 4165 c-7 -17 4 -37 17 -30 12 8 12 45 -1 45 -6 0 -13 -7 -16
-15z"/>
<path d="M830 1790 c0 -44 16 -52 44 -24 28 27 12 64 -26 64 -14 0 -18 -8 -18
-40z"/>
<path d="M1340 1825 c0 -8 6 -15 14 -15 22 0 28 17 10 24 -22 9 -24 8 -24 -9z"/>
<path d="M1340 1764 c0 -9 7 -14 17 -12 25 5 28 28 4 28 -12 0 -21 -6 -21 -16z"/>
<path d="M1740 1791 c0 -44 6 -49 34 -28 25 18 18 61 -11 65 -21 3 -23 -1 -23
-37z"/>
<path d="M2570 1820 c0 -11 7 -20 15 -20 8 0 15 6 15 14 0 8 -7 16 -15 20 -10
4 -15 -1 -15 -14z"/>
<path d="M2810 1825 c0 -8 7 -15 15 -15 8 0 15 4 15 9 0 5 -7 11 -15 15 -9 3
-15 0 -15 -9z"/>
<path d="M2810 1765 c0 -10 7 -15 18 -13 21 4 19 22 -2 26 -10 2 -16 -3 -16
-13z"/>
<path d="M3440 1819 c0 -12 5 -19 12 -17 18 6 20 25 3 31 -10 5 -15 0 -15 -14z"/>
<path d="M3597 1793 c-4 -3 -7 -15 -7 -25 0 -26 24 -17 28 10 3 21 -8 29 -21
15z"/>
<path d="M3988 1793 c7 -3 16 -2 19 1 4 3 -2 6 -13 5 -11 0 -14 -3 -6 -6z"/>
<path d="M4520 1776 c0 -19 5 -24 25 -22 35 2 35 41 0 44 -20 1 -25 -3 -25
-22z"/>
<path d="M4674 1785 c-7 -17 4 -37 17 -30 12 8 12 45 -1 45 -6 0 -13 -7 -16
-15z"/>
<path d="M3440 1300 c0 -11 7 -20 15 -20 8 0 15 6 15 14 0 8 -7 16 -15 20 -10
4 -15 -1 -15 -14z"/>
<path d="M830 1270 c0 -44 16 -52 44 -24 28 27 12 64 -26 64 -14 0 -18 -8 -18
-40z"/>
<path d="M1340 1305 c0 -8 6 -15 14 -15 22 0 28 17 10 24 -22 9 -24 8 -24 -9z"/>
<path d="M1340 1244 c0 -9 7 -14 17 -12 25 5 28 28 4 28 -12 0 -21 -6 -21 -16z"/>
<path d="M1740 1271 c0 -44 6 -49 34 -28 25 18 18 61 -11 65 -21 3 -23 -1 -23
-37z"/>
<path d="M2570 1300 c0 -11 7 -20 15 -20 8 0 15 6 15 14 0 8 -7 16 -15 20 -10
4 -15 -1 -15 -14z"/>
<path d="M2810 1305 c0 -8 7 -15 15 -15 8 0 15 4 15 9 0 5 -7 11 -15 15 -9 3
-15 0 -15 -9z"/>
<path d="M2810 1245 c0 -10 7 -15 18 -13 21 4 19 22 -2 26 -10 2 -16 -3 -16
-13z"/>
<path d="M3597 1273 c-4 -3 -7 -15 -7 -25 0 -26 24 -17 28 10 3 21 -8 29 -21
15z"/>
<path d="M3988 1273 c7 -3 16 -2 19 1 4 3 -2 6 -13 5 -11 0 -14 -3 -6 -6z"/>
<path d="M4515 1271 c-10 -18 7 -39 31 -37 34 2 34 41 -1 44 -13 1 -26 -2 -30
-7z"/>
<path d="M4674 1265 c-7 -17 4 -37 17 -30 12 8 12 45 -1 45 -6 0 -13 -7 -16
-15z"/>
<path d="M8440 8806 c0 -46 0 -46 35 -46 53 0 62 -24 68 -172 5 -140 21 -185
77 -223 l28 -19 -29 -18 c-51 -31 -71 -94 -78 -241 -7 -141 -14 -157 -73 -157
-26 0 -28 -3 -28 -40 l0 -40 45 0 c26 0 59 7 75 15 51 26 63 65 70 223 8 160
19 189 78 207 29 8 32 13 32 50 0 37 -3 42 -32 50 -59 18 -70 47 -78 207 -9
195 -30 232 -139 245 l-51 6 0 -47z"/>
<path d="M9374 8416 c-10 -27 6 -36 62 -36 l54 0 0 -155 0 -155 25 0 25 0 0
155 0 154 58 3 c49 3 57 6 57 23 0 19 -8 20 -138 23 -114 2 -138 0 -143 -12z"/>
<path d="M10170 8250 c0 -170 1 -180 19 -180 17 0 19 9 23 95 3 104 15 128 62
128 49 0 56 -17 56 -124 l0 -99 26 0 26 0 -4 111 c-3 102 -5 112 -27 130 -28
23 -88 25 -119 3 l-22 -15 0 65 c0 59 -2 66 -20 66 -19 0 -20 -7 -20 -180z"/>
<path d="M11000 8250 c0 -173 1 -180 20 -180 19 0 20 7 20 180 0 173 -1 180
-20 180 -19 0 -20 -7 -20 -180z"/>
<path d="M12060 8251 c0 -174 1 -181 20 -181 18 0 20 7 20 70 l0 70 53 1 c28
0 72 6 96 12 36 10 48 19 64 51 16 30 18 45 11 74 -15 59 -49 76 -164 80
l-100 4 0 -181z m204 107 c21 -30 20 -54 -4 -78 -16 -16 -33 -20 -90 -20 l-70
0 0 60 0 60 74 0 c66 0 77 -3 90 -22z"/>
<path d="M12387 8424 c-4 -4 -7 -16 -7 -26 0 -13 7 -18 26 -18 21 0 25 4 22
22 -3 23 -27 35 -41 22z"/>
<path d="M13047 8423 c-4 -3 -7 -84 -7 -180 l0 -173 25 0 25 0 0 180 c0 168
-1 180 -18 180 -10 0 -22 -3 -25 -7z"/>
<path d="M13160 8405 c0 -18 5 -25 20 -25 15 0 20 7 20 25 0 18 -5 25 -20 25
-15 0 -20 -7 -20 -25z"/>
<path d="M9678 8310 c-36 -28 -51 -72 -46 -130 8 -82 75 -131 150 -109 35 10
78 46 78 66 0 22 -35 15 -60 -12 -13 -14 -33 -25 -45 -25 -33 0 -75 37 -75 66
0 24 1 24 95 24 52 0 95 3 95 8 0 29 -26 88 -47 108 -34 31 -108 33 -145 4z
m125 -42 c33 -39 23 -48 -53 -48 -61 0 -70 2 -70 18 0 20 24 45 50 55 23 8 53
-2 73 -25z"/>
<path d="M9948 8301 c-28 -25 -32 -35 -35 -92 -3 -51 0 -70 16 -96 46 -73 170
-58 195 25 11 34 -25 29 -52 -8 -38 -51 -94 -35 -112 30 -24 89 34 166 95 126
14 -9 25 -21 25 -26 0 -6 11 -10 24 -10 19 0 23 4 19 20 -17 63 -119 81 -175
31z"/>
<path d="M10447 8323 c-4 -3 -7 -62 -7 -130 l0 -123 25 0 c25 0 25 1 25 88 0
104 13 132 64 132 50 0 56 -13 56 -122 0 -98 0 -98 25 -98 25 0 25 1 25 83 0
96 -14 153 -40 167 -29 16 -96 12 -111 -6 -11 -14 -13 -14 -21 0 -9 17 -30 21
-41 9z"/>
<path d="M10744 8296 c-31 -31 -34 -40 -34 -90 0 -95 40 -142 121 -140 93 3
145 101 105 198 -19 47 -51 66 -109 66 -42 0 -54 -5 -83 -34z m139 -28 c27
-32 23 -113 -8 -143 -27 -28 -42 -30 -79 -14 -44 21 -58 114 -23 158 28 34 79
34 110 -1z"/>
<path d="M11149 8315 c-73 -39 -70 -197 3 -236 33 -18 99 -15 130 5 70 46 68
195 -3 231 -35 19 -96 19 -130 0z m94 -26 c46 -21 61 -93 32 -149 -27 -52 -93
-52 -120 0 -28 54 -14 128 29 148 28 14 31 14 59 1z"/>
<path d="M11422 8314 c-55 -38 -69 -135 -29 -195 30 -45 86 -61 128 -37 29 17
29 17 29 -11 0 -43 -22 -66 -67 -66 -26 0 -45 7 -61 23 -27 27 -42 28 -42 3 0
-48 100 -79 163 -50 44 20 51 45 55 202 4 142 4 147 -16 147 -11 0 -22 -5 -24
-11 -3 -9 -9 -9 -25 0 -31 16 -85 14 -111 -5z m111 -46 c22 -26 23 -105 1
-136 -10 -15 -25 -22 -49 -22 -45 0 -68 34 -67 98 1 81 67 115 115 60z"/>
<path d="M11640 8326 c0 -2 20 -57 45 -123 25 -65 45 -126 45 -136 0 -32 -20
-57 -45 -57 -18 0 -25 -5 -25 -20 0 -27 52 -27 77 -1 16 17 134 313 133 334 0
4 -9 7 -19 7 -19 0 -32 -25 -72 -145 -7 -22 -16 -43 -19 -47 -3 -4 -21 38 -40
92 -30 88 -37 100 -57 100 -13 0 -23 -2 -23 -4z"/>
<path d="M12380 8200 l0 -130 25 0 25 0 0 130 0 130 -25 0 -25 0 0 -130z"/>
<path d="M12490 8150 l0 -180 25 0 c24 0 25 3 25 59 l0 59 28 -14 c40 -20 97
-2 122 38 59 97 15 218 -79 218 -20 0 -47 -7 -59 -16 -20 -14 -22 -14 -22 0 0
9 -9 16 -20 16 -19 0 -20 -7 -20 -180z m155 125 c20 -19 25 -34 25 -75 0 -41
-5 -56 -25 -75 -42 -43 -88 -27 -105 36 -13 49 1 101 33 124 30 21 44 19 72
-10z"/>
<path d="M12794 8296 c-31 -31 -34 -40 -34 -90 0 -84 22 -117 94 -140 44 -14
136 37 136 75 0 18 -40 8 -64 -16 -28 -28 -43 -30 -80 -14 -20 9 -46 52 -46
75 0 2 43 4 95 4 l95 0 0 36 c0 28 -8 44 -34 70 -29 29 -41 34 -81 34 -40 0
-52 -5 -81 -34z m109 -7 c27 -14 37 -28 37 -51 0 -15 -10 -18 -65 -18 -55 0
-65 3 -65 18 0 22 10 36 35 50 25 14 32 15 58 1z"/>
<path d="M13160 8200 c0 -123 1 -130 20 -130 19 0 20 7 20 130 0 123 -1 130
-20 130 -19 0 -20 -7 -20 -130z"/>
<path d="M13270 8200 c0 -123 1 -130 20 -130 18 0 20 7 20 83 0 101 13 131 58
135 55 5 62 -8 62 -119 l0 -99 26 0 26 0 -4 111 c-3 102 -5 112 -27 130 -28
23 -88 25 -119 3 -20 -14 -22 -14 -22 0 0 9 -9 16 -20 16 -19 0 -20 -7 -20
-130z"/>
<path d="M13578 8310 c-36 -28 -51 -72 -46 -130 8 -82 75 -131 150 -109 35 10
78 46 78 66 0 22 -35 15 -60 -12 -13 -14 -33 -25 -45 -25 -33 0 -75 37 -75 66
0 24 1 24 95 24 52 0 95 3 95 8 0 29 -26 88 -47 108 -34 31 -108 33 -145 4z
m125 -42 c33 -39 23 -48 -53 -48 -61 0 -70 2 -70 18 0 20 24 45 50 55 23 8 53
-2 73 -25z"/>
<path d="M13835 8305 c-30 -29 -32 -66 -6 -89 11 -10 46 -25 78 -35 63 -19 80
-44 47 -68 -29 -21 -70 -16 -92 12 -23 29 -65 35 -55 8 18 -53 82 -80 146 -62
28 8 42 19 54 45 16 33 16 35 -4 62 -14 18 -40 33 -81 45 -64 19 -80 37 -56
62 21 21 60 19 84 -5 27 -27 60 -27 53 0 -8 32 -43 50 -96 50 -38 0 -53 -5
-72 -25z"/>
<path d="M15807 6282 c-30 -33 -13 -70 41 -86 13 -5 22 -15 22 -28 0 -18 -4
-20 -40 -14 -32 5 -40 3 -40 -9 0 -36 95 -30 109 7 12 34 3 52 -36 73 -41 23
-41 40 -1 41 34 0 47 12 28 24 -24 16 -66 11 -83 -8z"/>
<path d="M15920 6285 c0 -9 9 -15 25 -15 24 0 25 -2 25 -75 0 -68 2 -75 20
-75 18 0 20 7 20 75 0 73 1 75 25 75 16 0 25 6 25 15 0 12 -14 15 -70 15 -56
0 -70 -3 -70 -15z"/>
<path d="M16099 6287 c-45 -34 -50 -92 -13 -136 20 -25 34 -31 64 -31 60 0 70
7 70 51 0 37 -2 39 -30 39 -31 0 -41 -16 -15 -26 29 -11 17 -34 -18 -34 -43 0
-57 15 -57 61 0 48 19 63 70 56 44 -6 61 6 31 22 -26 15 -82 13 -102 -2z"/>
<path d="M13100 6161 l0 -131 30 0 c29 0 30 1 30 50 0 42 3 50 19 50 12 0 31
-19 51 -50 28 -44 36 -50 66 -50 33 0 34 1 23 23 -6 12 -23 37 -36 55 l-25 33
26 20 c31 25 34 67 7 100 -17 21 -29 24 -105 28 l-86 3 0 -131z m138 70 c8 -5
12 -17 10 -27 -2 -14 -13 -20 -46 -22 -41 -3 -42 -2 -42 27 0 28 3 31 33 31
17 0 38 -4 45 -9z"/>
<path d="M13550 6160 l0 -130 30 0 30 0 0 130 0 130 -30 0 -30 0 0 -130z"/>
<path d="M14569 6271 c-36 -28 -43 -58 -16 -67 14 -4 25 0 37 16 19 25 53 24
58 -2 2 -10 -17 -40 -46 -70 -49 -53 -72 -87 -72 -107 0 -7 32 -11 85 -11 84
0 85 0 85 25 0 23 -4 25 -46 25 l-47 0 47 50 c36 38 46 57 46 83 0 63 -80 99
-131 58z"/>
<path d="M19754 6282 c-55 -9 -76 -90 -34 -132 30 -30 83 -27 109 6 49 63 3
139 -75 126z m56 -41 c17 -32 12 -60 -14 -76 -41 -27 -74 0 -66 55 6 41 61 56
80 21z"/>
<path d="M19440 6205 c0 -60 3 -75 15 -75 9 0 15 9 15 25 0 20 6 27 30 32 28
5 50 28 50 52 0 22 -33 41 -71 41 l-39 0 0 -75z m75 30 c0 -13 -8 -21 -22 -23
-19 -3 -23 1 -23 23 0 22 4 26 23 23 14 -2 22 -10 22 -23z"/>
<path d="M19570 6205 c0 -60 3 -75 15 -75 10 0 15 10 15 30 0 17 4 30 9 30 6
0 18 -13 28 -30 9 -16 26 -30 36 -30 17 0 17 2 -3 30 -19 26 -19 32 -6 52 9
16 11 30 5 46 -7 18 -16 22 -54 22 l-45 0 0 -75z m73 41 c6 -16 -11 -36 -30
-36 -7 0 -13 11 -13 25 0 18 5 25 19 25 10 0 21 -6 24 -14z"/>
<path d="M19870 6205 l0 -75 45 0 c81 0 124 75 75 128 -16 17 -32 22 -70 22
l-50 0 0 -75z m100 36 c16 -31 12 -59 -12 -75 -44 -31 -58 -22 -58 39 0 54 0
55 30 55 19 0 33 -7 40 -19z"/>
<path d="M13377 6200 c-55 -44 -43 -140 20 -167 37 -15 67 -10 96 15 37 33 3
58 -42 30 -20 -12 -51 -5 -51 12 0 6 24 10 55 10 64 0 75 12 55 61 -25 59 -85
76 -133 39z m67 -26 c28 -11 18 -34 -14 -34 -32 0 -37 9 -18 28 14 14 12 14
32 6z"/>
<path d="M13679 6207 c-44 -34 -52 -110 -16 -153 29 -34 94 -39 126 -10 12 11
21 23 21 28 0 16 -31 21 -55 8 -25 -13 -55 -8 -55 10 0 5 23 10 53 10 30 0 56
2 59 6 11 11 -12 80 -33 97 -24 20 -77 22 -100 4z m69 -39 c19 -19 14 -28 -18
-28 -41 0 -40 33 1 39 3 1 10 -4 17 -11z"/>
<path d="M13872 6204 c-12 -8 -22 -22 -22 -30 0 -17 41 -19 57 -3 13 13 43 5
43 -10 0 -5 -15 -12 -32 -16 -53 -11 -78 -32 -78 -64 0 -33 20 -53 52 -52 13
0 45 1 72 1 l49 0 -5 82 c-4 64 -9 84 -23 94 -25 19 -85 18 -113 -2z m78 -108
c0 -7 -7 -19 -15 -26 -21 -17 -51 6 -34 26 15 18 49 18 49 0z"/>
<path d="M14062 6204 c-34 -23 -30 -69 8 -89 16 -8 35 -15 42 -15 7 0 20 -5
28 -10 12 -8 13 -11 1 -19 -15 -10 -51 -3 -51 10 0 5 -13 9 -30 9 -33 0 -35
-3 -20 -30 17 -32 79 -45 123 -27 73 31 57 95 -29 116 -24 6 -44 16 -44 21 0
13 47 13 55 0 8 -14 42 -13 51 2 12 18 -34 48 -75 48 -20 0 -47 -7 -59 -16z"/>
<path d="M14267 6200 c-55 -44 -43 -140 20 -167 37 -15 67 -10 96 15 37 33 3
58 -42 30 -20 -12 -51 -5 -51 12 0 6 24 10 55 10 64 0 75 12 55 61 -25 59 -85
76 -133 39z m67 -26 c28 -11 18 -34 -14 -34 -32 0 -37 9 -18 28 14 14 12 14
32 6z"/>
<path d="M11551 6179 c-78 -31 -59 -149 24 -149 18 0 38 -7 45 -15 7 -8 19
-15 28 -15 13 0 13 2 -2 18 -15 17 -15 21 -1 50 34 67 -26 138 -94 111z m64
-43 c18 -27 7 -69 -21 -80 -23 -9 -64 20 -64 45 0 57 55 81 85 35z"/>
<path d="M11690 6113 c-14 -37 -26 -71 -28 -75 -2 -5 3 -8 11 -8 9 0 19 9 22
20 5 15 15 20 40 20 24 0 34 -5 38 -20 3 -11 12 -20 21 -20 14 0 13 7 -5 53
-12 28 -25 62 -30 75 -17 43 -43 27 -69 -45z m62 -5 c7 -15 4 -18 -16 -18 -24
0 -24 2 -14 32 7 20 13 27 16 18 3 -8 9 -23 14 -32z"/>
<path d="M12380 4935 c0 -96 3 -115 15 -115 12 0 15 17 16 93 l1 92 31 -92
c41 -121 53 -122 92 -5 l30 87 3 -87 c2 -69 6 -88 17 -88 12 0 15 21 15 116 0
113 0 115 -22 112 -17 -2 -27 -20 -53 -98 l-32 -95 -32 98 c-29 87 -35 97 -57
97 -24 0 -24 0 -24 -115z"/>
<path d="M12820 4935 c0 -96 3 -115 15 -115 12 0 15 19 15 115 0 96 -3 115
-15 115 -12 0 -15 -19 -15 -115z"/>
<path d="M12980 5035 c0 -8 7 -15 15 -15 8 0 15 7 15 15 0 8 -7 15 -15 15 -8
0 -15 -7 -15 -15z"/>
<path d="M13230 4935 c0 -96 3 -115 15 -115 12 0 15 19 15 115 0 96 -3 115
-15 115 -12 0 -15 -19 -15 -115z"/>
<path d="M13750 5035 c0 -8 7 -15 15 -15 8 0 15 7 15 15 0 8 -7 15 -15 15 -8
0 -15 -7 -15 -15z"/>
<path d="M14180 4935 c0 -70 4 -115 10 -115 6 0 10 45 10 115 0 70 -4 115 -10
115 -6 0 -10 -45 -10 -115z"/>
<path d="M14250 5035 c0 -8 5 -15 10 -15 6 0 10 7 10 15 0 8 -4 15 -10 15 -5
0 -10 -7 -10 -15z"/>
<path d="M15280 5035 c0 -8 7 -15 15 -15 8 0 15 7 15 15 0 8 -7 15 -15 15 -8
0 -15 -7 -15 -15z"/>
<path d="M16260 5011 c0 -40 -1 -40 -25 -29 -70 31 -125 -71 -74 -136 22 -28
66 -35 87 -14 9 9 12 9 12 0 0 -7 7 -12 15 -12 13 0 15 17 13 112 -2 78 -7
113 -15 116 -9 2 -13 -9 -13 -37z m-10 -72 c22 -41 2 -99 -35 -99 -43 0 -60
75 -25 110 22 22 45 18 60 -11z"/>
<path d="M16330 5035 c0 -8 7 -15 15 -15 8 0 15 7 15 15 0 8 -7 15 -15 15 -8
0 -15 -7 -15 -15z"/>
<path d="M16409 5020 c-6 -16 -15 -30 -20 -30 -5 0 -9 -7 -9 -15 0 -8 5 -15
10 -15 6 0 10 -30 10 -70 0 -56 3 -70 15 -70 12 0 15 14 15 70 l0 70 30 0 30
0 0 -70 c0 -56 3 -70 15 -70 12 0 15 14 15 70 0 56 3 70 15 70 8 0 15 7 15 15
0 8 -7 15 -15 15 -22 0 -18 31 5 37 31 8 24 23 -10 23 -26 0 -31 -5 -36 -30
-6 -25 -11 -30 -36 -30 -34 0 -34 19 0 35 31 14 27 25 -9 25 -24 0 -32 -6 -40
-30z"/>
<path d="M18420 5035 c0 -8 7 -15 15 -15 8 0 15 7 15 15 0 8 -7 15 -15 15 -8
0 -15 -7 -15 -15z"/>
<path d="M18860 5016 c0 -34 -1 -35 -33 -29 -28 4 -37 1 -55 -22 -28 -36 -29
-94 -2 -123 17 -18 30 -22 70 -20 l50 2 0 113 c0 94 -3 113 -15 113 -10 0 -15
-10 -15 -34z m3 -93 c7 -35 -12 -77 -37 -81 -45 -9 -65 84 -24 112 27 19 54 6
61 -31z"/>
<path d="M18940 5035 c0 -8 5 -15 10 -15 6 0 10 7 10 15 0 8 -4 15 -10 15 -5
0 -10 -7 -10 -15z"/>
<path d="M19019 5020 c-6 -16 -15 -30 -20 -30 -5 0 -9 -7 -9 -15 0 -8 5 -15
10 -15 6 0 10 -30 10 -70 0 -56 3 -70 15 -70 12 0 15 14 15 70 l0 70 30 0 30
0 0 -70 c0 -56 3 -70 15 -70 12 0 15 14 15 70 0 56 3 70 15 70 8 0 15 7 15 15
0 8 -7 15 -15 15 -22 0 -18 31 5 37 31 8 24 23 -10 23 -26 0 -31 -5 -36 -30
-6 -25 -11 -30 -36 -30 -34 0 -34 19 0 35 31 14 27 25 -9 25 -24 0 -32 -6 -40
-30z"/>
<path d="M20280 4935 c0 -96 3 -115 15 -115 12 0 15 19 15 115 0 96 -3 115
-15 115 -12 0 -15 -19 -15 -115z"/>
<path d="M12907 5033 c-4 -3 -7 -15 -7 -25 0 -10 -4 -18 -10 -18 -5 0 -10 -7
-10 -15 0 -8 4 -15 10 -15 5 0 10 -30 12 -67 3 -66 4 -68 31 -71 29 -4 37 12
12 22 -23 8 -21 105 3 122 16 12 16 13 0 19 -10 4 -18 18 -18 31 0 23 -10 31
-23 17z"/>
<path d="M15807 5033 c-4 -3 -7 -15 -7 -25 0 -10 -4 -18 -10 -18 -5 0 -10 -7
-10 -15 0 -8 4 -15 10 -15 5 0 10 -30 12 -67 3 -66 4 -68 31 -71 29 -4 37 12
12 22 -23 8 -21 105 3 122 16 12 16 13 0 19 -10 4 -18 18 -18 31 0 23 -10 31
-23 17z"/>
<path d="M17228 5034 c-5 -4 -8 -16 -8 -26 0 -10 -4 -18 -10 -18 -5 0 -10 -7
-10 -15 0 -8 4 -15 10 -15 5 0 10 -30 12 -67 3 -67 3 -68 33 -71 l30 -4 -22
24 c-28 30 -34 118 -8 118 8 0 15 7 15 15 0 8 -6 15 -14 15 -8 0 -16 12 -18
26 -2 14 -6 22 -10 18z"/>
<path d="M17563 5033 c-7 -3 -13 -13 -13 -23 0 -10 -5 -22 -11 -26 -8 -4 -8
-9 0 -17 6 -6 11 -36 11 -67 0 -31 5 -61 12 -68 17 -17 48 -15 48 3 0 8 -7 15
-15 15 -12 0 -15 13 -15 55 0 42 3 55 15 55 8 0 15 7 15 15 0 8 -6 15 -14 15
-8 0 -16 11 -18 23 -2 14 -8 22 -15 20z"/>
<path d="M19838 5034 c-5 -4 -8 -16 -8 -26 0 -10 -4 -18 -10 -18 -5 0 -10 -7
-10 -15 0 -8 4 -15 10 -15 5 0 10 -30 12 -67 3 -67 3 -68 33 -71 l30 -4 -22
24 c-28 30 -34 118 -8 118 8 0 15 7 15 15 0 8 -6 15 -14 15 -8 0 -16 12 -18
26 -2 14 -6 22 -10 18z"/>
<path d="M12650 4916 c0 -48 4 -77 13 -84 7 -6 36 -10 65 -10 l52 1 0 84 c0
67 -3 83 -15 83 -12 0 -15 -14 -15 -65 0 -61 -2 -66 -26 -77 -37 -17 -54 9
-54 84 0 32 -4 58 -10 58 -6 0 -10 -31 -10 -74z"/>
<path d="M12987 4983 c-4 -3 -7 -42 -7 -85 0 -63 3 -78 15 -78 12 0 15 16 15
85 0 78 -5 96 -23 78z"/>
<path d="M13057 4983 c-4 -3 -7 -55 -7 -115 0 -89 3 -108 15 -108 10 0 15 10
15 34 0 34 1 34 38 29 51 -7 77 22 77 84 0 35 -5 49 -24 64 -26 22 -61 25 -79
7 -9 -9 -12 -9 -12 0 0 13 -13 16 -23 5z m109 -60 c8 -31 -13 -76 -38 -81 -44
-8 -64 72 -28 108 25 25 56 13 66 -27z"/>
<path d="M13327 4976 c-41 -31 -39 -124 3 -146 28 -15 77 -12 94 6 20 20 20
34 1 34 -8 0 -15 -4 -15 -10 0 -5 -11 -12 -25 -16 -29 -7 -55 10 -55 37 0 17
8 19 61 19 52 0 60 2 55 16 -3 9 -6 20 -6 25 0 5 -9 18 -20 29 -23 23 -67 26
-93 6z m84 -37 c9 -17 6 -19 -36 -19 -34 0 -45 4 -45 15 0 17 38 35 58 28 7
-3 17 -14 23 -24z"/>
<path d="M13570 4875 c0 -96 3 -115 15 -115 10 0 15 10 15 33 0 32 1 32 39 29
33 -3 42 0 56 22 20 29 22 84 6 115 -14 26 -58 38 -82 23 -12 -8 -20 -8 -24
-2 -18 29 -25 -1 -25 -105z m94 82 c21 -15 25 -80 6 -102 -15 -18 -42 -19 -58
-3 -17 17 -15 78 5 100 19 22 24 22 47 5z"/>
<path d="M13750 4906 c0 -71 3 -86 15 -86 13 0 15 14 13 82 -2 54 -7 83 -15
86 -10 3 -13 -18 -13 -82z"/>
<path d="M13820 4875 c0 -96 3 -115 15 -115 10 0 15 10 15 33 0 32 1 33 34 29
48 -6 76 24 76 81 0 66 -60 111 -99 75 -11 -10 -14 -10 -18 0 -14 38 -23 -2
-23 -103z m94 79 c31 -30 14 -114 -23 -114 -31 0 -46 30 -42 82 1 18 27 48 41
48 5 0 16 -7 24 -16z"/>
<path d="M14015 4965 c-32 -31 -34 -96 -5 -125 27 -27 83 -27 112 2 27 27 6
39 -23 12 -26 -23 -73 -9 -77 24 -3 21 0 22 57 22 55 0 61 2 61 20 0 29 -44
70 -75 70 -14 0 -37 -11 -50 -25z m93 -33 c2 -8 -12 -12 -42 -12 -46 0 -53 5
-38 26 18 27 69 18 80 -14z"/>
<path d="M14250 4905 c0 -50 4 -85 10 -85 6 0 10 35 10 85 0 50 -4 85 -10 85
-6 0 -10 -35 -10 -85z"/>
<path d="M14320 4905 c0 -68 3 -85 15 -85 11 0 15 16 17 68 l3 67 30 0 30 0 3
-67 c2 -52 6 -68 18 -68 12 0 14 14 12 77 -3 75 -4 78 -31 87 -20 8 -34 7 -50
-3 -15 -10 -22 -10 -25 -2 -2 6 -8 11 -13 11 -5 0 -9 -38 -9 -85z"/>
<path d="M14515 4965 c-32 -31 -34 -96 -5 -125 27 -27 83 -27 112 2 27 27 6
39 -23 12 -26 -23 -73 -9 -77 24 -3 21 0 22 57 22 55 0 61 2 61 20 0 29 -44
70 -75 70 -14 0 -37 -11 -50 -25z m93 -33 c2 -8 -12 -12 -42 -12 -46 0 -53 5
-38 26 18 27 69 18 80 -14z"/>
<path d="M14688 4979 c-21 -12 -24 -52 -5 -66 6 -6 29 -16 50 -23 27 -8 37
-17 35 -28 -4 -23 -46 -27 -68 -7 -27 24 -44 15 -25 -13 31 -43 125 -21 125
30 0 20 -16 33 -62 47 -37 12 -50 35 -25 44 17 5 47 -3 47 -14 0 -5 7 -9 15
-9 22 0 19 27 -4 40 -25 13 -61 12 -83 -1z"/>
<path d="M14935 4965 c-17 -16 -25 -35 -25 -60 0 -61 71 -110 108 -73 9 9 12
9 12 -1 0 -46 -54 -68 -88 -35 -12 13 -17 14 -20 4 -6 -18 35 -50 63 -50 13 0
33 9 46 19 22 17 24 29 28 111 2 60 -1 96 -8 103 -9 9 -14 8 -20 -2 -6 -9 -11
-10 -15 -2 -12 19 -56 12 -81 -14z m91 -39 c8 -35 2 -57 -21 -72 -31 -21 -65
6 -65 51 0 64 71 81 86 21z"/>
<path d="M15120 4972 c-32 -26 -38 -90 -10 -124 26 -34 87 -39 112 -10 34 39
29 109 -10 138 -24 19 -66 17 -92 -4z m93 -45 c10 -32 -10 -80 -36 -85 -49
-10 -76 69 -37 108 25 25 60 14 73 -23z"/>
<path d="M15280 4906 c0 -71 3 -86 15 -86 13 0 15 14 13 82 -2 54 -7 83 -15
86 -10 3 -13 -18 -13 -82z"/>
<path d="M15350 4905 c0 -68 3 -85 15 -85 11 0 15 16 17 68 l3 67 30 0 30 0 3
-67 c2 -52 6 -68 18 -68 12 0 14 14 12 77 -3 75 -4 78 -31 87 -20 8 -34 7 -50
-3 -15 -10 -22 -10 -25 -2 -2 6 -8 11 -13 11 -5 0 -9 -38 -9 -85z"/>
<path d="M15540 4970 c-29 -29 -28 -102 2 -130 24 -22 58 -26 76 -8 9 9 12 8
12 -4 0 -49 -38 -63 -85 -32 -22 15 -25 15 -25 1 0 -20 38 -47 66 -47 12 0 33
9 48 21 25 20 26 24 26 120 0 59 -4 99 -10 99 -5 0 -10 -5 -10 -10 0 -7 -6 -7
-19 0 -30 16 -59 12 -81 -10z m82 -24 c4 -6 8 -28 8 -48 0 -44 -27 -66 -60
-48 -19 10 -25 31 -20 75 3 39 51 53 72 21z"/>
<path d="M16330 4906 c0 -71 3 -86 15 -86 13 0 15 14 13 82 -2 54 -7 83 -15
86 -10 3 -13 -18 -13 -82z"/>
<path d="M16602 4983 c-23 -9 -44 -64 -38 -96 9 -46 33 -67 76 -67 33 0 70 23
70 43 0 13 -27 7 -40 -8 -18 -21 -46 -19 -64 7 -22 31 -12 38 50 38 50 0 54 2
54 23 0 45 -61 79 -108 60z m59 -23 c36 -20 23 -40 -26 -40 -42 0 -45 2 -35
19 8 16 21 26 38 30 2 1 12 -4 23 -9z"/>
<path d="M16750 4905 c0 -69 3 -85 15 -85 11 0 15 13 15 54 0 67 7 86 30 86
11 0 22 5 25 10 10 16 -26 24 -46 11 -12 -7 -19 -7 -19 -1 0 5 -4 10 -10 10
-6 0 -10 -35 -10 -85z"/>
<path d="M16875 4965 c-32 -31 -34 -96 -5 -125 27 -27 83 -27 112 2 27 27 6
39 -23 12 -26 -23 -73 -9 -77 24 -3 21 0 22 57 22 55 0 61 2 61 20 0 29 -44
70 -75 70 -14 0 -37 -11 -50 -25z m93 -33 c2 -8 -12 -12 -42 -12 -46 0 -53 5
-38 26 18 27 69 18 80 -14z"/>
<path d="M17037 4983 c-4 -3 -7 -42 -7 -85 0 -63 3 -78 15 -78 11 0 15 13 15
53 0 63 16 90 51 85 22 -3 24 -7 27 -70 2 -52 6 -68 17 -68 12 0 15 15 15 63
0 92 -33 127 -91 97 -13 -7 -19 -7 -19 0 0 11 -13 13 -23 3z"/>
<path d="M17399 4971 c-20 -16 -22 -22 -12 -44 8 -16 23 -28 45 -32 46 -10 61
-24 47 -41 -15 -18 -44 -18 -63 1 -16 17 -36 20 -36 6 0 -42 98 -57 124 -20
25 36 7 62 -56 79 -21 6 -38 17 -38 24 0 22 31 28 57 11 34 -23 52 -14 25 13
-27 27 -62 28 -93 3z"/>
<path d="M17662 4974 c-25 -17 -29 -34 -7 -34 8 0 15 4 15 9 0 13 25 20 49 14
12 -3 21 -13 21 -23 0 -13 -11 -19 -42 -24 -23 -4 -48 -12 -55 -18 -16 -13
-17 -50 -1 -66 15 -15 63 -16 89 -2 13 7 19 7 19 0 0 -5 6 -10 13 -10 20 0 10
141 -11 158 -22 17 -63 15 -90 -4z m78 -93 c0 -25 -24 -43 -52 -39 -32 4 -31
40 2 49 41 12 50 10 50 -10z"/>
<path d="M17830 4970 c-29 -29 -28 -102 2 -130 24 -22 58 -26 76 -8 9 9 12 8
12 -4 0 -49 -38 -63 -85 -32 -22 15 -25 15 -25 1 0 -20 38 -47 66 -47 12 0 33
9 48 21 25 20 26 24 26 120 0 59 -4 99 -10 99 -5 0 -10 -5 -10 -10 0 -7 -6 -7
-19 0 -30 16 -59 12 -81 -10z m82 -24 c4 -6 8 -28 8 -48 0 -44 -27 -66 -60
-48 -19 10 -25 31 -20 75 3 39 51 53 72 21z"/>
<path d="M18017 4976 c-41 -31 -39 -124 3 -146 28 -15 77 -12 94 6 20 20 20
34 1 34 -8 0 -15 -4 -15 -10 0 -5 -11 -12 -25 -16 -29 -7 -55 10 -55 37 0 17
8 19 61 19 52 0 60 2 55 16 -3 9 -6 20 -6 25 0 5 -9 18 -20 29 -23 23 -67 26
-93 6z m84 -37 c9 -17 6 -19 -36 -19 -34 0 -45 4 -45 15 0 17 38 35 58 28 7
-3 17 -14 23 -24z"/>
<path d="M18179 4969 c-18 -18 -19 -23 -6 -42 8 -12 27 -26 43 -32 48 -17 57
-25 43 -41 -15 -18 -43 -18 -59 1 -13 16 -40 20 -40 7 0 -20 39 -42 72 -42 48
0 76 30 60 65 -6 14 -16 25 -22 25 -6 0 -27 7 -48 16 -35 14 -36 16 -18 29 16
13 23 12 47 -2 35 -21 49 -10 24 17 -23 26 -69 26 -96 -1z"/>
<path d="M18420 4905 c0 -69 3 -85 15 -85 12 0 15 16 15 85 0 69 -3 85 -15 85
-12 0 -15 -16 -15 -85z"/>
<path d="M18490 4905 c0 -69 3 -85 15 -85 12 0 15 13 15 58 0 62 11 82 46 82
27 0 34 -17 34 -86 0 -41 4 -54 15 -54 25 0 21 124 -5 150 -22 22 -42 25 -70
10 -13 -7 -21 -7 -25 0 -17 27 -25 2 -25 -75z"/>
<path d="M18940 4905 c0 -50 4 -85 10 -85 6 0 10 35 10 85 0 50 -4 85 -10 85
-6 0 -10 -35 -10 -85z"/>
<path d="M19212 4983 c-23 -9 -44 -64 -38 -96 9 -46 33 -67 76 -67 33 0 70 23
70 43 0 13 -27 7 -40 -8 -18 -21 -46 -19 -64 7 -22 31 -12 38 50 38 50 0 54 2
54 23 0 45 -61 79 -108 60z m59 -23 c36 -20 23 -40 -26 -40 -42 0 -45 2 -35
19 8 16 21 26 38 30 2 1 12 -4 23 -9z"/>
<path d="M19360 4905 c0 -69 3 -85 15 -85 11 0 15 13 15 54 0 67 7 86 30 86
11 0 22 5 25 10 10 16 -26 24 -46 11 -12 -7 -19 -7 -19 -1 0 5 -4 10 -10 10
-6 0 -10 -35 -10 -85z"/>
<path d="M19487 4976 c-41 -31 -39 -124 3 -146 28 -15 77 -12 94 6 20 20 20
34 1 34 -8 0 -15 -4 -15 -10 0 -5 -11 -12 -25 -16 -29 -7 -55 10 -55 37 0 17
8 19 61 19 52 0 60 2 55 16 -3 9 -6 20 -6 25 0 5 -9 18 -20 29 -23 23 -67 26
-93 6z m84 -37 c9 -17 6 -19 -36 -19 -34 0 -45 4 -45 15 0 17 38 35 58 28 7
-3 17 -14 23 -24z"/>
<path d="M19647 4983 c-4 -3 -7 -42 -7 -85 0 -63 3 -78 15 -78 11 0 15 13 15
53 0 63 16 90 51 85 22 -3 24 -7 27 -70 2 -52 6 -68 17 -68 12 0 15 15 15 63
0 92 -33 127 -91 97 -13 -7 -19 -7 -19 0 0 11 -13 13 -23 3z"/>
<path d="M20000 4905 c0 -69 3 -85 15 -85 11 0 15 13 15 54 0 67 7 86 30 86
11 0 22 5 25 10 10 16 -26 24 -46 11 -12 -7 -19 -7 -19 -1 0 5 -4 10 -10 10
-6 0 -10 -35 -10 -85z"/>
<path d="M20125 4965 c-32 -31 -34 -96 -5 -125 27 -27 83 -27 112 2 27 27 6
39 -23 12 -26 -23 -73 -9 -77 24 -3 21 0 22 57 22 55 0 61 2 61 20 0 29 -44
70 -75 70 -14 0 -37 -11 -50 -25z m93 -33 c2 -8 -12 -12 -42 -12 -46 0 -53 5
-38 26 18 27 69 18 80 -14z"/>
<path d="M20377 4976 c-41 -31 -39 -124 3 -146 28 -15 77 -12 94 6 20 20 20
34 1 34 -8 0 -15 -4 -15 -10 0 -5 -11 -12 -25 -16 -29 -7 -55 10 -55 37 0 17
8 19 61 19 52 0 60 2 55 16 -3 9 -6 20 -6 25 0 5 -9 18 -20 29 -23 23 -67 26
-93 6z m84 -37 c9 -17 6 -19 -36 -19 -34 0 -45 4 -45 15 0 17 38 35 58 28 7
-3 17 -14 23 -24z"/>
<path d="M20552 4974 c-12 -8 -22 -19 -22 -25 0 -13 28 -11 32 2 5 16 59 14
68 -2 11 -17 3 -29 -19 -29 -34 0 -80 -22 -86 -40 -11 -35 12 -60 53 -60 21 0
43 5 50 12 9 9 12 9 12 0 0 -7 7 -12 15 -12 25 0 21 124 -5 150 -24 24 -67 26
-98 4z m88 -82 c0 -20 -34 -52 -55 -52 -46 0 -43 46 3 53 48 7 52 7 52 -1z"/>
<path d="M20719 4969 c-18 -18 -19 -23 -6 -42 8 -12 27 -26 43 -32 48 -17 57
-25 43 -41 -15 -18 -43 -18 -59 1 -13 16 -40 20 -40 7 0 -20 39 -42 72 -42 48
0 76 30 60 65 -6 14 -16 25 -22 25 -6 0 -27 7 -48 16 -35 14 -36 16 -18 29 16
13 23 12 47 -2 35 -21 49 -10 24 17 -23 26 -69 26 -96 -1z"/>
<path d="M20902 4983 c-23 -9 -44 -64 -38 -96 9 -46 33 -67 76 -67 33 0 70 23
70 43 0 13 -27 7 -40 -8 -18 -21 -46 -19 -64 7 -22 31 -12 38 50 38 50 0 54 2
54 23 0 45 -61 79 -108 60z m59 -23 c36 -20 23 -40 -26 -40 -42 0 -45 2 -35
19 8 16 21 26 38 30 2 1 12 -4 23 -9z"/>
<path d="M21059 4971 c-20 -16 -22 -22 -12 -44 8 -16 23 -28 45 -32 46 -10 61
-24 47 -41 -15 -18 -44 -18 -63 1 -16 17 -36 20 -36 6 0 -42 98 -57 124 -20
25 36 7 62 -56 79 -21 6 -38 17 -38 24 0 22 31 28 57 11 34 -23 52 -14 25 13
-27 27 -62 28 -93 3z"/>
<path d="M8780 2961 l0 -131 25 0 c23 0 25 3 25 51 0 46 2 50 22 47 13 -2 38
-23 58 -50 29 -41 40 -48 68 -48 l33 0 -18 31 c-10 17 -27 41 -38 53 l-21 23
28 25 c33 30 36 66 9 99 -17 21 -29 24 -105 28 l-86 3 0 -131z m138 70 c8 -5
12 -17 10 -27 -2 -15 -14 -20 -51 -22 -46 -3 -47 -3 -47 27 0 29 2 31 38 31
20 0 43 -4 50 -9z"/>
<path d="M9230 2960 l0 -130 25 0 25 0 0 130 0 130 -25 0 -25 0 0 -130z"/>
<path d="M10220 2961 l0 -131 25 0 c25 0 25 2 25 78 l0 77 50 -77 c44 -69 53
-78 80 -78 l31 0 -3 128 -3 127 -27 3 -27 3 -3 -77 -3 -78 -45 75 c-36 60 -50
75 -73 77 l-27 3 0 -130z"/>
<path d="M9059 3007 c-44 -34 -52 -110 -16 -153 29 -34 94 -39 126 -10 12 11
21 23 21 28 0 16 -31 21 -55 8 -25 -13 -55 -8 -55 10 0 5 23 10 53 10 30 0 56
2 59 6 11 11 -12 80 -33 97 -24 20 -77 22 -100 4z m69 -39 c19 -19 14 -28 -18
-28 -41 0 -40 33 1 39 3 1 10 -4 17 -11z"/>
<path d="M9346 2994 c-35 -36 -36 -101 -3 -140 32 -37 100 -40 128 -5 10 13
16 27 13 32 -7 12 -54 11 -54 -1 0 -16 -47 -12 -54 5 -4 12 5 15 54 15 58 0
60 1 60 26 0 83 -87 124 -144 68z m82 -26 c20 -20 14 -28 -23 -28 -33 0 -35 2
-25 20 12 23 30 26 48 8z"/>
<path d="M9540 3000 c-30 -30 -25 -43 13 -36 56 11 70 11 74 -1 2 -6 -10 -14
-29 -18 -53 -11 -78 -32 -78 -65 0 -40 38 -66 77 -52 16 5 43 7 62 4 32 -4 34
-3 28 19 -4 13 -7 50 -7 81 0 70 -15 88 -76 88 -31 0 -50 -6 -64 -20z m90
-105 c0 -17 -29 -34 -47 -28 -31 11 -10 40 30 42 9 1 17 -6 17 -14z"/>
<path d="M9742 3004 c-24 -17 -30 -65 -9 -82 6 -5 31 -15 55 -21 41 -12 54
-25 30 -34 -18 -5 -48 3 -48 14 0 5 -13 9 -30 9 -33 0 -35 -3 -20 -30 26 -48
140 -46 156 3 16 46 -3 70 -68 88 -43 11 -51 29 -13 29 14 0 25 -4 25 -10 0
-13 47 -13 55 0 3 5 -3 18 -15 30 -24 24 -86 27 -118 4z"/>
<path d="M9949 3007 c-44 -34 -52 -110 -16 -153 29 -34 94 -39 126 -10 12 11
21 23 21 28 0 16 -31 21 -55 8 -25 -13 -55 -8 -55 10 0 5 23 10 53 10 30 0 56
2 59 6 11 11 -12 80 -33 97 -24 20 -77 22 -100 4z m69 -39 c19 -19 14 -28 -18
-28 -41 0 -40 33 1 39 3 1 10 -4 17 -11z"/>
<path d="M12087 3002 c-30 -33 -13 -70 41 -86 13 -5 22 -15 22 -28 0 -18 -4
-20 -40 -14 -32 5 -40 3 -40 -9 0 -36 95 -30 109 7 12 34 3 52 -36 73 -41 23
-41 40 -1 41 34 0 47 12 28 24 -24 16 -66 11 -83 -8z"/>
<path d="M12200 3005 c0 -9 9 -15 25 -15 24 0 25 -2 25 -75 0 -60 3 -75 15
-75 12 0 15 15 15 75 l0 75 30 0 c20 0 30 5 30 15 0 12 -14 15 -70 15 -56 0
-70 -3 -70 -15z"/>
<path d="M12379 3007 c-45 -34 -50 -92 -13 -136 20 -25 34 -31 64 -31 60 0 70
7 70 51 0 37 -2 39 -30 39 -31 0 -41 -16 -15 -26 29 -11 17 -34 -18 -34 -43 0
-57 15 -57 61 0 48 19 63 70 56 44 -6 61 6 31 22 -26 15 -82 13 -102 -2z"/>
<path d="M16674 3002 c-55 -9 -76 -90 -34 -132 30 -30 83 -27 109 6 49 63 3
139 -75 126z m56 -41 c17 -32 12 -60 -14 -76 -41 -27 -74 0 -66 55 6 41 61 56
80 21z"/>
<path d="M7630 2933 c-14 -37 -26 -71 -28 -75 -2 -5 3 -8 11 -8 9 0 19 9 22
20 5 15 15 20 40 20 24 0 34 -5 38 -20 3 -11 12 -20 21 -20 14 0 13 7 -5 53
-12 28 -25 62 -30 75 -17 43 -43 27 -69 -45z m62 -5 c7 -15 4 -18 -16 -18 -24
0 -24 2 -14 32 7 20 13 27 16 18 3 -8 9 -23 14 -32z"/>
<path d="M16350 2925 c0 -60 3 -75 15 -75 9 0 15 9 15 24 0 18 7 26 27 31 38
9 53 23 53 49 0 33 -19 46 -67 46 l-43 0 0 -75z m80 30 c0 -20 -5 -25 -25 -25
-20 0 -25 5 -25 25 0 20 5 25 25 25 20 0 25 -5 25 -25z"/>
<path d="M16490 2925 c0 -60 3 -75 15 -75 10 0 15 10 15 30 0 17 4 30 9 30 6
0 18 -13 28 -30 9 -16 26 -30 36 -30 17 0 17 2 -3 30 -19 26 -19 32 -6 52 9
16 11 30 5 46 -7 18 -16 22 -54 22 l-45 0 0 -75z m73 41 c6 -16 -11 -36 -30
-36 -7 0 -13 11 -13 25 0 18 5 25 19 25 10 0 21 -6 24 -14z"/>
<path d="M16790 2925 l0 -75 45 0 c81 0 124 75 75 128 -16 17 -32 22 -70 22
l-50 0 0 -75z m100 36 c16 -31 12 -59 -12 -75 -44 -31 -58 -22 -58 39 0 54 0
55 30 55 19 0 33 -7 40 -19z"/>
<path d="M10480 2855 c0 -21 5 -25 30 -25 25 0 30 4 30 25 0 21 -5 25 -30 25
-25 0 -30 -4 -30 -25z"/>
<path d="M10600 2855 c0 -21 5 -25 30 -25 25 0 30 4 30 25 0 21 -5 25 -30 25
-25 0 -30 -4 -30 -25z"/>
<path d="M10720 2855 c0 -21 5 -25 30 -25 25 0 30 4 30 25 0 21 -5 25 -30 25
-25 0 -30 -4 -30 -25z"/>
<path d="M10830 2855 c0 -20 5 -25 25 -25 20 0 25 5 25 25 0 20 -5 25 -25 25
-20 0 -25 -5 -25 -25z"/>
<path d="M16525 2704 c-14 -37 -75 -218 -75 -226 0 -4 16 -8 35 -8 l35 0 0
-915 0 -915 -5390 0 -5390 0 0 75 0 75 -2695 0 -2695 0 0 -160 0 -160 2695 0
2694 0 3 73 3 72 5400 5 5400 5 3 923 2 922 35 0 c19 0 35 4 35 9 0 11 -69
211 -79 230 -6 10 -10 9 -16 -5z m-12977 -2067 c2 -55 0 -67 -13 -67 -12 0
-15 14 -15 71 0 52 3 70 13 67 7 -3 13 -29 15 -71z m250 0 c3 -62 1 -67 -18
-67 -18 0 -20 6 -20 71 0 62 2 70 18 67 14 -3 18 -16 20 -71z m44 63 c2 -5 1
-37 0 -70 -3 -43 -8 -60 -18 -60 -11 0 -14 15 -14 63 0 35 3 67 7 70 9 10 21
9 25 -3z m626 -63 c2 -53 0 -67 -12 -67 -10 0 -15 16 -18 63 -4 68 -2 80 15
74 7 -2 13 -31 15 -70z m644 63 c2 -5 1 -37 0 -70 -3 -43 -8 -60 -18 -60 -10
0 -14 14 -15 48 l0 47 -18 -45 c-24 -58 -47 -63 -66 -16 -9 20 -19 36 -23 36
-15 0 -32 -24 -32 -47 0 -14 -6 -23 -15 -23 -11 0 -15 12 -15 49 l0 48 46 1
c42 1 47 -1 57 -28 l11 -29 13 29 c6 17 18 30 26 30 8 0 17 9 20 20 5 21 23
27 29 10z m-4208 -15 c23 -24 28 -52 14 -82 -12 -25 -20 -28 -66 -31 l-52 -3
0 65 0 66 44 0 c26 0 51 -6 60 -15z m173 -27 l19 -41 13 41 c10 29 20 42 33
42 22 0 23 5 -6 -66 -32 -79 -55 -83 -80 -14 -17 47 -20 50 -52 50 -19 0 -34
-4 -34 -10 0 -5 9 -10 20 -10 11 0 20 -7 20 -15 0 -8 -9 -15 -20 -15 -11 0
-20 -7 -20 -15 0 -10 10 -15 30 -15 17 0 30 -4 30 -10 0 -5 -20 -10 -45 -10
l-45 0 0 65 0 65 60 0 59 0 18 -42z m330 30 c6 -7 10 -35 9 -63 l-1 -50 -47
-3 -48 -3 0 65 0 66 39 0 c21 0 43 -6 48 -12z m63 -38 c0 -43 3 -50 20 -50 17
0 20 7 20 50 0 43 3 50 20 50 17 0 20 -7 20 -48 0 -61 -17 -85 -60 -85 -43 0
-60 24 -60 85 0 41 3 48 20 48 17 0 20 -7 20 -50z m130 -15 c0 -51 -3 -65 -15
-65 -12 0 -15 14 -15 65 0 51 3 65 15 65 12 0 15 -14 15 -65z m50 10 c0 -52 1
-55 25 -55 14 0 25 -4 25 -10 0 -5 -18 -10 -40 -10 l-40 0 0 65 c0 51 3 65 15
65 12 0 15 -13 15 -55z m164 39 c9 -8 16 -31 16 -49 0 -46 -22 -65 -76 -65
l-44 0 0 65 0 65 44 0 c27 0 51 -6 60 -16z m266 1 c0 -8 -9 -15 -20 -15 -17 0
-20 -7 -20 -50 0 -38 -4 -50 -15 -50 -11 0 -15 12 -15 50 0 43 -3 50 -20 50
-11 0 -20 7 -20 15 0 12 13 15 55 15 42 0 55 -3 55 -15z m100 0 c0 -10 -10
-15 -30 -15 -16 0 -30 -4 -30 -10 0 -5 11 -10 25 -10 16 0 25 -6 25 -15 0 -9
-9 -15 -25 -15 -16 0 -25 -6 -25 -15 0 -13 11 -15 57 -11 60 4 80 19 40 30
-30 7 -41 31 -27 57 9 17 22 19 100 19 73 0 90 -3 90 -15 0 -8 -9 -15 -20 -15
-17 0 -20 -7 -20 -50 0 -38 -4 -50 -15 -50 -11 0 -15 12 -15 50 l0 50 -47 0
c-44 -1 -47 -2 -29 -15 11 -8 23 -15 28 -15 4 0 8 -13 8 -30 0 -34 -29 -55
-63 -44 -12 4 -43 6 -69 5 l-48 -2 0 65 0 66 45 0 c33 0 45 -4 45 -15z m460
-7 l9 -23 0 23 c1 15 7 22 21 22 17 0 20 -7 20 -50 0 -43 3 -50 20 -50 17 0
20 7 20 50 0 43 3 50 20 50 17 0 20 -7 20 -48 0 -61 -17 -85 -60 -85 -37 0
-60 23 -60 62 l0 25 -16 -22 c-8 -12 -24 -22 -35 -22 -12 0 -19 -7 -19 -20 0
-13 -7 -20 -20 -20 -18 0 -20 7 -20 65 l0 65 45 0 c38 0 47 -4 55 -22z m236
-13 c1 -16 5 -38 9 -48 12 -28 -13 -47 -61 -47 l-44 0 0 66 0 65 48 -3 c45 -3
47 -5 48 -33z m54 -20 c0 -52 1 -55 25 -55 14 0 25 -4 25 -10 0 -5 -18 -10
-40 -10 l-40 0 0 65 c0 51 3 65 15 65 12 0 15 -13 15 -55z m100 -10 c0 -58 -2
-65 -20 -65 -18 0 -20 7 -20 65 0 58 2 65 20 65 18 0 20 -7 20 -65z m97 48 c3
-7 -9 -13 -29 -15 l-33 -3 30 -15 c41 -20 47 -66 12 -79 -31 -12 -67 -3 -67
16 0 11 7 14 25 11 37 -8 40 9 5 27 -31 16 -39 42 -18 63 16 16 70 12 75 -5z
m43 -8 c0 -20 5 -25 25 -25 20 0 25 5 25 25 0 18 5 25 20 25 18 0 20 -7 20
-65 0 -58 -2 -65 -20 -65 -15 0 -20 7 -20 25 0 20 -5 25 -25 25 -20 0 -25 -5
-25 -25 0 -16 -6 -25 -15 -25 -12 0 -15 14 -15 65 0 51 3 65 15 65 9 0 15 -9
15 -25z m330 11 c21 -26 8 -60 -27 -71 -22 -6 -33 -15 -33 -27 0 -10 -7 -18
-15 -18 -12 0 -15 14 -15 65 l0 65 39 0 c21 0 44 -6 51 -14z m826 -24 l22 -37
18 38 c11 22 25 37 36 37 16 0 18 -9 18 -65 0 -51 -3 -65 -15 -65 -10 0 -15
10 -15 33 l-1 32 -17 -27 c-9 -16 -22 -28 -28 -28 -6 0 -17 12 -25 28 l-13 27
-4 -32 c-2 -20 -9 -33 -18 -33 -11 0 -14 15 -14 65 0 55 3 65 18 65 9 0 27
-17 38 -38z m-3064 -12 c16 -28 16 -32 0 -60 -9 -16 -22 -30 -28 -30 -13 0
-44 43 -44 60 0 17 31 60 44 60 6 0 19 -14 28 -30z m663 4 c16 -25 16 -29 1
-60 -20 -42 -36 -43 -59 -3 -16 29 -16 32 0 60 21 36 36 37 58 3z m560 0 c16
-25 16 -29 1 -60 -20 -42 -36 -43 -59 -3 -16 29 -16 32 0 60 21 36 36 37 58 3z
m1160 -1 c13 -13 17 -13 31 1 29 29 74 13 74 -26 0 -13 -8 -18 -25 -18 -14 0
-25 -5 -25 -11 0 -7 10 -9 25 -5 18 5 25 2 25 -8 0 -23 -38 -30 -65 -12 -22
14 -26 14 -54 -2 -17 -9 -31 -20 -31 -24 0 -5 -9 -8 -20 -8 -18 0 -20 7 -20
64 l0 64 35 0 c20 0 42 -7 50 -15z m294 0 c8 -15 10 -15 26 0 30 30 75 15 75
-25 0 -13 -8 -18 -25 -18 -14 0 -25 -5 -25 -11 0 -7 10 -9 25 -5 18 5 25 2 25
-8 0 -23 -38 -30 -65 -12 -14 9 -25 12 -25 6 0 -5 -9 -10 -20 -10 -16 0 -20 7
-20 35 0 19 -4 35 -10 35 -5 0 -10 -16 -10 -35 0 -24 -5 -35 -15 -35 -11 0
-15 12 -15 48 0 49 0 49 35 50 23 1 38 -4 44 -15z m221 -2 c0 -10 -7 -24 -15
-31 -8 -7 -15 -16 -15 -21 0 -5 7 -9 15 -9 8 0 15 -4 15 -10 0 -5 -18 -10 -40
-10 -22 0 -40 3 -40 6 0 3 9 19 21 35 l20 29 -20 0 c-12 0 -21 7 -21 15 0 11
11 15 40 15 32 0 40 -4 40 -19z m390 9 c17 -10 6 -25 -18 -25 -10 0 -17 -8
-17 -20 0 -15 6 -19 23 -18 28 3 30 -23 2 -32 -33 -11 -60 12 -60 50 0 45 35
68 70 45z m80 -6 c0 -6 -7 -14 -15 -18 -9 -3 -15 -18 -15 -36 0 -20 -5 -30
-15 -30 -11 0 -15 12 -15 48 0 47 1 49 30 49 17 0 30 -6 30 -13z m88 0 c12 -8
22 -11 22 -6 0 14 30 23 51 17 26 -9 24 -25 -3 -25 -21 0 -21 0 -2 -14 17 -13
20 -12 27 10 16 46 87 40 87 -7 0 -14 -7 -19 -25 -19 -14 0 -25 -5 -25 -11 0
-7 10 -9 25 -5 18 5 25 2 25 -8 0 -22 -38 -30 -63 -13 -19 12 -25 12 -44 0
-14 -10 -30 -12 -45 -7 -26 9 -25 9 -55 0 -15 -5 -28 -1 -42 13 -26 26 -26 46
-1 71 24 24 38 25 68 4z m497 5 c6 0 19 2 31 6 13 4 27 1 38 -10 26 -26 20
-45 -15 -45 -18 0 -28 -4 -24 -10 4 -6 15 -8 25 -5 26 8 35 -12 11 -24 -13 -8
-28 -8 -46 -1 -18 7 -33 7 -46 0 -30 -17 -69 12 -69 51 0 21 42 51 63 44 12
-3 27 -6 32 -6z m-1855 -34 c0 -9 -9 -15 -25 -15 -16 0 -25 6 -25 15 0 9 9 15
25 15 16 0 25 -6 25 -15z m860 0 c0 -9 -9 -15 -25 -15 -16 0 -25 6 -25 15 0 9
9 15 25 15 16 0 25 -6 25 -15z"/>
<path d="M840 631 c0 -44 6 -49 34 -28 25 18 18 61 -11 65 -21 3 -23 -1 -23
-37z"/>
<path d="M1350 665 c0 -8 7 -15 15 -15 8 0 15 4 15 9 0 5 -7 11 -15 15 -9 3
-15 0 -15 -9z"/>
<path d="M1350 604 c0 -9 7 -14 17 -12 25 5 28 28 4 28 -12 0 -21 -6 -21 -16z"/>
<path d="M1740 630 c0 -43 12 -50 45 -27 27 21 13 67 -20 67 -22 0 -25 -4 -25
-40z"/>
<path d="M2580 660 c0 -11 7 -20 15 -20 8 0 15 6 15 14 0 8 -7 16 -15 20 -10
4 -15 -1 -15 -14z"/>
<path d="M2820 665 c0 -8 7 -15 15 -15 8 0 15 4 15 9 0 5 -7 11 -15 15 -9 3
-15 0 -15 -9z"/>
<path d="M2820 604 c0 -17 22 -14 28 4 2 7 -3 12 -12 12 -9 0 -16 -7 -16 -16z"/>
<path d="M3440 660 c0 -11 6 -20 14 -20 24 0 28 18 6 30 -17 9 -20 8 -20 -10z"/>
<path d="M3600 615 c0 -14 4 -25 9 -25 12 0 19 21 13 38 -8 21 -22 13 -22 -13z"/>
<path d="M4672 619 c1 -13 8 -23 13 -21 15 3 12 35 -3 40 -9 3 -13 -3 -10 -19z"/>
<path d="M4730 615 c0 -15 7 -21 28 -23 25 -1 25 -1 7 10 -11 6 -23 16 -27 22
-5 6 -8 3 -8 -9z"/>
<path d="M5160 616 c0 -19 5 -24 25 -22 35 2 35 41 0 44 -20 1 -25 -3 -25 -22z"/>
<path d="M5248 633 c7 -3 16 -2 19 1 4 3 -2 6 -13 5 -11 0 -14 -3 -6 -6z"/>
</g>
</svg>
