<svg height="35" viewBox="0 0 34 35" width="34" xmlns="http://www.w3.org/2000/svg" xmlns:xlink="http://www.w3.org/1999/xlink"><linearGradient id="a" x1="31.253688%" x2="58.04879%" y1="4.936632%" y2="81.829714%"><stop offset="0" stop-color="#77cffe"/><stop offset="1" stop-color="#289ce1"/></linearGradient><linearGradient id="b" x1="32.904609%" x2="66.380391%" y1="10.503874%" y2="58.447315%"><stop offset="0" stop-color="#289ce1"/><stop offset="1" stop-color="#006ab0"/></linearGradient><linearGradient id="c" x1="0%" x2="100%" y1="50%" y2="50%"><stop offset="0" stop-color="#006ab0" stop-opacity=".5"/><stop offset="1" stop-color="#006ab0" stop-opacity="0"/></linearGradient><g fill="none" fill-rule="evenodd" transform="translate(0 .5)"><path d="m19.4416073 14.2578076v5.0022936h4.7199667c2.6031381 0 4.713073 2.0947642 4.713073 4.6808502 0 2.5859253-2.1155275 4.6818351-4.7186656 4.6818351-2.603138 0-4.7155062-2.1180188-4.7155062-4.7039441l.0011321-14.31204397c0-2.1438102-.7259603-4.30682086-2.030497-5.96577252-.4935706-.58090829-.329801-.56835434-.9166748-.07746754-.0141888.01186815-.0278593.02433328-.040974.03736119l-2.7168229 2.69885818c-.4562434.45322654-.4101408.29042162-.0919176.79736837.5004792.79729022.7507187 1.63384099.7507187 2.50965232v14.33415297c0 5.3501792 4.37475 9.6805732 9.7605417 9.6805732s9.7567574-4.330394 9.7567574-9.6805732-4.3709657-9.6831438-9.7567574-9.6831438c-3.5905278 0-5.1619858 0-4.7143741 0z" fill="url(#a)"/><path d="m9.70543114 5.01614107c1.03887676 0 1.94721276.27084793 2.72500806.81254379l3.5479047-3.54707052c-1.765172-1.52107622-3.8561429-2.28161434-6.27291276-2.28161434-5.35160639 0-9.70543114 4.35558524-9.70543114 9.70915797 0 5.35341193 4.35382475 9.70883643 9.70543114 9.70883643h3.43275696v-5.016141h-3.43275696c-2.58677581 0-4.69129317-2.1052907-4.69129317-4.69269543 0-2.58788703 2.10451736-4.6930169 4.69129317-4.6930169z" fill="url(#b)"/><path d="m19.4331209 14.2938015h4.9662421v1.1633437 3.8421837h-4.9662421z" fill="url(#c)"/></g></svg>