<svg height="35" viewBox="0 0 32 35" width="32" xmlns="http://www.w3.org/2000/svg" xmlns:xlink="http://www.w3.org/1999/xlink"><defs><path id="a" d="m12.4458343 21.9774589c0-.605241.6716306-.8849797 1.1956572-.583326l4.9624606 2.8650653c.3139003.1824102.4698836.5427187.4698836.9056055v6.378557c0 1.1840551.6316679 2.2778719 1.657806 2.8702218l5.5225825 3.1886339c.3164785.1824102.5517426.4982442.5517426.8637092v5.7236849c0 .6065302-.5794586 1.0499868-1.1047743.7463995l-11.045165-6.3766233c-1.3671099-.7895849-2.2101932-2.2495113-2.2101932-3.8280366zm29.7353812-.5830037c.523382-.3035874 1.1950126-.021915 1.1950126.5826814v12.7538912c0 1.5791698-.8417942 3.0384517-2.2101932 3.827392l-11.045165 6.3766234c-.5253157.3035873-1.1047743-.1385802-1.1047743-.7457549v-5.723685c0-.3648204.2359086-.6806544.5523871-.8630646l5.5232271-3.1899231c1.0254935-.5917053 1.6571615-1.6855221 1.6571615-2.8695772v-6.3779124c0-.3635313.1546941-.7238399.469239-.9062501zm-14.8225392-.375069c.3416163-.1972351.7631579-.1972351 1.1047743 0l5.5238716 3.188634c.3416163.1978796.5523872.5620555.5523872.9565257v6.378557c0 .3951147-.2107709.7592906-.5523872.9571703l-5.5238716 3.1886339c-.3416164.1965905-.763158.1965905-1.1047743 0l-5.5225825-3.1886339c-.3422609-.1978797-.5530318-.5620556-.5530318-.9571703v-6.378557c0-.3944702.2107709-.7586461.5530318-.9565257zm-1.657935-9.246845c1.3671099-.7895849 3.0532765-.7895849 4.421031 0l11.0445204 6.3772678c.5266048.3035874.4331437 1.029361-.0941056 1.3335929l-4.9515032 2.8592642c-.3177676.1830548-.7109487.1353574-1.0287163-.0483419l-5.5238716-3.188634c-1.0254936-.5917053-2.289474-.5917053-3.3136784 0l-5.5238716 3.188634c-.3171231.1836993-.7115933.2313967-1.0287164.0483419l-4.9521477-2.8592642c-.5259602-.3042319-.6200658-1.0300055-.093461-1.3335929z"/><mask id="b" fill="#fff"><use fill="#fff" fill-rule="evenodd" xlink:href="#a"/></mask></defs><g fill="none" fill-rule="evenodd" transform="translate(-11.875 -10.78125)"><use fill="#fff" xlink:href="#a"/><g mask="url(#b)"><path d="m0 0h55.777811v55.777811h-55.777811z" fill="#fff" transform="translate(.111117 .227657)"/></g></g></svg>