<?xml version="1.0" standalone="no"?>
<!DOCTYPE svg PUBLIC "-//W3C//DTD SVG 20010904//EN"
 "http://www.w3.org/TR/2001/REC-SVG-20010904/DTD/svg10.dtd">
<svg version="1.0" xmlns="http://www.w3.org/2000/svg"
 width="560.000000pt" height="560.000000pt" viewBox="0 0 560.000000 560.000000"
 preserveAspectRatio="xMidYMid meet">
<metadata>
Created by potrace 1.11, written by Peter Selinger 2001-2013
</metadata>
<g transform="translate(0.000000,560.000000) scale(0.100000,-0.100000)"
fill="#000000" stroke="none">
<path d="M1658 5525 c-3 -3 -49 -7 -104 -9 -124 -5 -227 -21 -333 -51 -217
-62 -432 -176 -599 -320 -70 -59 -212 -210 -212 -223 0 -4 -10 -18 -23 -32
-35 -39 -164 -251 -167 -275 0 -3 -9 -24 -19 -47 -40 -96 -86 -252 -98 -338
-3 -19 -9 -55 -13 -80 -9 -50 -5 -355 5 -410 40 -207 76 -320 153 -475 75
-152 228 -353 343 -450 133 -113 252 -193 371 -248 55 -26 107 -49 118 -52 29
-7 88 -30 98 -38 6 -5 12 -7 12 -4 0 3 21 0 48 -8 26 -7 65 -16 87 -21 22 -4
47 -9 55 -10 67 -13 191 -18 474 -19 l329 0 -1 385 c0 212 -1 392 -1 400 -1
13 -43 15 -314 17 -337 1 -360 3 -456 34 -171 54 -310 160 -407 310 -190 292
-150 684 95 929 154 154 318 223 531 224 152 0 271 -29 385 -94 l55 -31 280
279 c154 154 280 283 280 287 0 32 -303 217 -435 266 -11 4 -33 12 -50 18 -16
6 -39 13 -50 16 -11 3 -54 13 -96 24 -78 19 -131 27 -253 36 -38 3 -72 8 -76
10 -4 2 -9 2 -12 0z"/>
<path d="M2500 4733 l-280 -278 50 -85 c59 -100 92 -190 106 -290 3 -19 7
-604 8 -1300 2 -696 6 -1274 8 -1285 5 -18 13 -61 24 -125 8 -45 46 -174 66
-225 30 -75 110 -240 120 -243 4 -2 8 -9 8 -16 0 -7 9 -21 20 -31 11 -10 20
-22 20 -27 0 -5 6 -15 13 -22 6 -8 19 -24 27 -36 86 -130 292 -314 460 -412
124 -72 298 -148 338 -148 10 0 23 -5 30 -12 7 -7 12 -9 12 -6 0 4 15 2 33 -3
53 -17 62 -18 192 -38 61 -9 350 -7 395 2 14 3 43 8 65 12 100 14 320 82 353
108 6 5 12 7 12 4 0 -17 239 126 345 206 70 52 227 219 293 312 69 96 154 252
188 345 21 60 54 169 60 200 2 14 7 36 10 50 3 14 8 39 10 55 2 17 7 53 12 80
16 106 5 351 -22 465 -3 14 -8 36 -10 50 -20 108 -97 301 -172 430 -91 157
-273 359 -409 455 -38 27 -71 53 -73 57 -2 5 -10 8 -18 8 -8 0 -14 4 -14 9 0
5 -8 11 -17 14 -10 4 -47 22 -82 42 -198 110 -436 173 -681 181 -149 4 -156 4
-280 4 -58 0 -112 0 -120 0 -26 1 -294 1 -320 0 -59 -1 -83 0 -86 3 -2 1 -4
198 -5 437 0 239 -5 462 -10 495 -5 33 -11 74 -14 91 -2 17 -7 37 -9 45 -3 8
-7 25 -10 39 -8 48 -58 194 -93 273 -35 79 -121 233 -145 259 -7 7 -33 39 -57
71 -24 31 -50 57 -57 57 -8 0 -140 -125 -294 -277z m1650 -2322 c167 -50 308
-149 411 -289 38 -52 97 -172 104 -212 3 -18 11 -42 17 -54 12 -23 17 -254 6
-301 -22 -94 -30 -120 -40 -132 -6 -7 -8 -13 -5 -13 12 0 -82 -163 -107 -185
-6 -5 -21 -22 -33 -38 -66 -86 -262 -203 -373 -224 -8 -1 -36 -6 -63 -11 -45
-9 -206 -9 -257 1 -188 33 -382 159 -487 317 -58 86 -83 144 -120 281 -12 43
-15 871 -4 879 6 3 206 5 443 5 416 -2 436 -3 508 -24z"/>
</g>
</svg>
